<?xml version="1.0" standalone="no"?>
<!DOCTYPE svg PUBLIC "-//W3C//DTD SVG 20010904//EN"
 "http://www.w3.org/TR/2001/REC-SVG-20010904/DTD/svg10.dtd">
<svg version="1.0" xmlns="http://www.w3.org/2000/svg"
 width="279.000000pt" height="279.000000pt" viewBox="0 0 279.000000 279.000000"
 preserveAspectRatio="xMidYMid meet">
<metadata>
Created by potrace 1.14, written by Peter Selinger 2001-2017
</metadata>
<g transform="translate(0.000000,279.000000) scale(0.100000,-0.100000)"
fill="#000000" stroke="none">
<path d="M1205 2755 c-311 -42 -558 -167 -786 -394 -287 -286 -415 -622 -395
-1036 15 -317 120 -581 330 -837 188 -227 512 -407 821 -455 134 -20 403 -12
525 16 504 116 905 502 1023 983 38 155 47 220 47 363 0 280 -76 536 -226 762
-108 163 -315 354 -474 437 -278 146 -575 201 -865 161z m153 -111 c28 -32 28
-76 -1 -110 -19 -21 -32 -27 -67 -27 -35 0 -48 6 -67 27 -40 47 -26 107 30
132 41 17 76 10 105 -22z m204 -32 c27 -47 33 -53 39 -36 4 10 8 34 8 52 1 23
6 32 17 32 14 0 16 -9 10 -71 -12 -120 -22 -125 -76 -33 l-35 58 -8 -52 c-6
-37 -13 -52 -24 -52 -13 0 -14 10 -9 58 15 131 25 136 78 44z m-462 17 c0 -6
-9 -13 -20 -16 -24 -6 -25 -26 -5 -84 16 -43 14 -69 -4 -69 -5 0 -18 28 -28
63 -17 57 -21 62 -47 62 -48 0 -39 19 16 36 65 20 88 22 88 8z m835 -69 c3 -5
-1 -22 -9 -38 -15 -28 -14 -29 21 -46 19 -9 37 -16 38 -14 1 2 8 13 14 26 12
22 41 31 41 12 0 -9 -57 -129 -66 -139 -2 -2 -10 -1 -19 3 -14 5 -14 8 0 37 9
17 15 32 13 34 -2 1 -17 10 -35 19 -32 16 -32 16 -48 -14 -16 -30 -29 -38 -39
-21 -7 11 62 151 74 151 5 0 12 -4 15 -10z m-1065 -23 c0 -7 -15 -17 -32 -22
-59 -18 -68 -78 -17 -106 29 -15 73 4 66 29 -2 9 -6 23 -8 31 -8 28 20 21 36
-9 19 -36 11 -51 -38 -76 -70 -37 -147 33 -117 106 17 42 110 82 110 47z
m-192 -182 c31 -36 48 -63 42 -69 -5 -5 -34 -4 -70 3 -34 7 -64 10 -67 8 -2
-3 10 -21 26 -40 26 -28 29 -37 17 -46 -11 -9 -24 1 -65 51 -30 37 -47 66 -42
71 6 6 35 5 72 -2 34 -6 64 -9 66 -8 1 2 -11 20 -28 40 -17 20 -27 42 -24 47
10 16 18 10 73 -55z m859 54 c95 -13 267 -68 342 -111 259 -145 437 -371 513
-648 20 -74 23 -107 23 -260 -1 -190 -9 -236 -66 -382 -118 -298 -385 -531
-699 -612 -423 -107 -865 62 -1106 425 -78 117 -126 232 -155 370 -27 134 -23
330 11 454 95 354 363 630 707 730 151 44 281 55 430 34z m686 -29 c65 -51 31
-149 -51 -150 -45 0 -92 46 -92 90 0 68 86 105 143 60z m-1683 -261 c0 -22
-22 -13 -78 33 -49 40 -60 53 -51 64 9 11 22 4 70 -38 32 -28 59 -55 59 -59z
m1885 39 c24 -43 -2 -88 -50 -88 -8 0 -29 13 -48 30 -30 26 -35 27 -49 14 -13
-13 -16 -13 -26 -1 -10 11 1 24 55 66 l68 51 18 -22 c10 -13 24 -35 32 -50z
m-1984 -129 c33 -25 15 -43 -23 -23 -33 17 -33 17 -59 -30 -9 -15 -6 -23 17
-42 20 -15 26 -26 19 -33 -7 -7 -31 2 -78 30 -37 22 -67 44 -67 48 0 18 14 19
42 5 17 -9 31 -14 33 -12 1 2 10 17 19 35 16 32 16 32 -14 49 -22 14 -27 21
-18 31 8 10 20 7 59 -15 27 -15 59 -34 70 -43z m2107 -64 c24 -50 27 -65 12
-65 -6 0 -18 16 -27 35 -16 34 -36 45 -48 25 -3 -5 1 -23 10 -39 18 -37 19
-41 1 -41 -7 0 -19 14 -26 30 -13 31 -18 34 -44 24 -14 -5 -13 -11 5 -46 14
-27 17 -44 11 -50 -7 -7 -19 6 -36 40 -14 28 -26 55 -26 60 0 10 116 70 136
71 5 1 20 -19 32 -44z m-2330 -127 c-3 -30 -1 -32 57 -51 71 -23 72 -24 58
-38 -8 -8 -28 -6 -73 9 l-61 21 -9 -25 c-10 -26 -30 -33 -30 -10 0 11 12 50
35 114 9 25 26 11 23 -20z m2420 -203 c27 -20 42 -71 29 -107 -12 -38 -26 -26
-25 23 1 63 -51 90 -92 49 -24 -24 -25 -48 -5 -77 11 -15 12 -24 4 -29 -20
-12 -44 24 -44 67 0 71 76 113 133 74z m-2418 -19 c49 -9 66 -17 68 -30 3 -15
-1 -17 -30 -12 -100 20 -128 29 -128 42 0 17 5 17 90 0z m-22 -158 c62 -18 73
-24 70 -42 -2 -14 -16 -24 -50 -35 -27 -8 -48 -17 -48 -21 0 -3 25 -14 56 -24
78 -24 70 -43 -30 -79 -44 -15 -81 -25 -84 -23 -13 14 12 34 64 50 l59 19 -62
21 c-84 27 -84 46 -1 72 l62 18 -62 20 c-34 11 -62 26 -62 33 0 17 2 17 88 -9z
m2355 -65 c9 -9 -13 -34 -24 -27 -14 8 -11 34 4 34 8 0 17 -3 20 -7z m95 -140
c24 -4 31 -10 28 -22 -2 -9 -8 -35 -11 -58 -9 -59 -34 -59 -28 0 4 36 2 45
-13 51 -21 8 -34 -9 -34 -46 0 -19 -5 -28 -16 -28 -14 0 -15 7 -10 40 6 39 5
41 -24 46 -17 4 -30 13 -30 22 0 15 36 14 138 -5z m-1760 -883 c1 -14 5 -40 8
-58 l5 -32 44 30 c76 52 87 38 42 -57 -19 -42 -37 -68 -44 -66 -17 6 -16 28 3
64 l15 31 -37 -26 c-41 -28 -54 -26 -54 7 0 43 -15 49 -33 12 -12 -24 -21 -33
-32 -28 -9 3 -14 11 -12 17 40 98 62 137 76 134 9 -2 17 -14 19 -28z m1024
-137 c2 -10 -4 -19 -13 -21 -11 -2 -25 18 -47 67 -28 64 -29 72 -14 80 14 8
21 0 44 -50 15 -32 28 -67 30 -76z m-178 52 c-20 -48 -18 -57 21 -85 19 -14
35 -28 35 -32 0 -14 -47 -8 -60 7 -19 23 -34 18 -47 -15 -6 -17 -18 -30 -27
-30 -20 0 -20 8 -2 51 14 33 14 35 -22 72 l-36 37 26 0 c14 0 31 -7 38 -15 17
-21 23 -19 42 15 9 17 24 30 32 30 13 0 13 -4 0 -35z m-568 -44 l21 -53 33 41
c31 38 70 55 70 30 0 -5 -5 -42 -12 -80 -9 -55 -14 -69 -27 -67 -12 3 -15 14
-13 48 l3 45 -26 -32 c-15 -18 -30 -33 -35 -33 -5 0 -14 16 -21 35 -16 43 -29
45 -29 5 0 -28 -22 -51 -36 -37 -3 3 0 40 7 82 15 92 33 97 65 16z m272 4 l20
-25 16 25 c9 14 26 25 37 25 19 0 19 -2 -5 -37 l-25 -36 30 -41 c26 -36 28
-41 12 -45 -10 -2 -27 9 -41 24 -12 15 -24 26 -26 24 -2 -2 -8 -14 -14 -25 -6
-12 -23 -24 -37 -26 l-25 -5 25 43 c27 46 25 65 -9 94 -22 17 -20 30 3 30 11
0 28 -11 39 -25z"/>
<path d="M1268 2639 c-57 -33 -33 -108 35 -109 15 0 47 41 47 60 0 22 -33 60
-52 60 -7 0 -21 -5 -30 -11z"/>
<path d="M1315 2341 c3 -6 -8 -8 -28 -4 -22 3 -39 0 -48 -9 -8 -8 -23 -17 -34
-21 l-20 -7 20 16 c20 16 19 16 -5 10 -14 -4 -31 -8 -39 -8 -11 -1 -10 -4 2
-13 14 -10 13 -12 -4 -23 -10 -7 -19 -8 -19 -3 0 5 6 12 13 14 6 3 2 6 -10 6
-28 1 -39 -2 -36 -10 1 -4 -7 -5 -17 -2 -23 6 -80 -15 -80 -29 0 -5 -4 -6 -10
-3 -11 7 -70 -25 -70 -38 0 -4 6 -5 13 -1 6 4 8 3 4 -1 -10 -12 -38 -15 -31
-4 9 16 -2 10 -39 -20 -20 -15 -34 -31 -31 -34 3 -3 -3 -4 -13 -3 -10 0 -19
-6 -19 -14 -1 -8 -2 -19 -3 -24 0 -5 -7 -4 -14 2 -9 8 -28 -5 -75 -56 -90 -96
-102 -110 -102 -122 0 -5 -4 -10 -8 -10 -10 0 -37 -51 -33 -64 1 -5 -7 -15
-18 -22 -22 -16 -56 -97 -47 -113 4 -5 0 -13 -7 -18 -15 -9 -35 -61 -42 -109
-2 -16 -7 -44 -11 -63 -6 -28 -5 -33 7 -26 8 5 11 5 7 0 -4 -4 -3 -17 3 -27 8
-15 8 -23 -1 -32 -9 -8 -11 -7 -10 4 4 25 0 40 -8 40 -4 0 -8 -47 -8 -104 0
-58 3 -103 6 -101 4 2 4 -9 2 -25 -2 -17 -1 -38 3 -47 4 -10 9 -34 11 -53 2
-19 8 -36 14 -38 5 -2 8 -7 5 -12 -4 -7 4 -33 38 -113 7 -15 17 -25 24 -23 17
7 27 -12 14 -28 -8 -10 1 -32 40 -90 30 -46 55 -74 61 -70 7 5 8 2 3 -5 -4 -8
5 -24 24 -43 26 -25 34 -28 46 -18 8 7 13 16 10 19 -2 4 2 8 9 8 11 0 12 -4 3
-19 -7 -10 -15 -18 -19 -18 -5 0 -8 -5 -8 -11 0 -6 7 -8 16 -5 8 3 13 2 9 -3
-7 -12 24 -43 35 -36 4 3 10 -3 12 -13 3 -10 24 -28 46 -39 23 -11 40 -22 39
-24 -1 -2 3 2 9 9 9 10 13 9 19 -5 6 -15 9 -13 20 12 16 36 19 28 5 -10 -9
-23 -13 -25 -25 -15 -8 7 -15 9 -15 4 0 -5 24 -22 52 -38 40 -22 49 -24 38
-10 -9 12 -4 10 12 -5 30 -26 135 -64 151 -54 6 3 7 1 3 -6 -5 -8 0 -10 18 -7
14 3 26 1 26 -5 0 -5 10 -9 23 -10 230 -9 308 -8 313 6 5 11 11 12 25 4 11 -5
24 -7 30 -4 5 4 20 8 32 10 42 5 77 17 77 26 0 5 7 9 16 9 10 0 14 5 10 16 -4
10 -2 13 6 8 7 -5 9 -2 5 8 -3 9 -1 20 5 26 12 12 38 5 38 -10 0 -6 -6 -6 -14
1 -22 18 -25 -2 -4 -21 10 -10 18 -13 18 -7 0 5 5 7 12 3 8 -5 9 -2 4 11 -5
15 -4 16 8 6 12 -10 18 -9 33 6 11 11 24 18 29 16 5 -2 19 5 31 16 11 11 24
17 27 14 3 -4 6 -1 6 5 0 30 -31 22 -43 -11 -1 -5 -15 -10 -29 -11 -15 -2 -25
1 -22 6 3 5 12 7 20 4 7 -3 22 7 32 21 16 21 22 24 39 15 15 -8 25 -7 41 4 12
8 22 20 22 26 0 7 -6 6 -15 -2 -8 -7 -15 -9 -16 -4 0 5 -5 0 -10 -11 -9 -20
-9 -20 -6 0 1 11 7 20 12 20 6 0 15 4 22 8 6 4 14 3 17 -2 6 -9 88 64 117 103
13 18 12 19 -4 13 -11 -4 -16 -3 -12 4 4 5 15 7 26 4 14 -5 20 0 25 19 3 14
10 24 14 21 5 -3 11 4 15 15 3 11 11 20 17 20 6 0 5 7 -3 16 -11 14 -11 18 2
28 9 6 14 16 12 23 -2 6 0 14 5 17 5 3 8 -5 7 -16 -1 -12 -7 -24 -13 -26 -13
-4 -16 -22 -4 -22 10 0 45 60 35 60 -4 0 -3 4 4 8 6 4 13 14 15 22 2 8 9 21
16 28 13 14 8 32 -9 32 -5 0 -9 -6 -9 -14 0 -8 -4 -17 -9 -20 -5 -4 -8 0 -7 6
3 24 17 39 34 36 12 -2 16 3 14 16 -2 10 1 15 6 12 11 -6 36 70 27 84 -3 5 -1
12 5 15 6 4 8 16 4 27 -4 13 -2 18 4 14 13 -8 19 42 21 178 2 95 0 108 -13 97
-12 -10 -14 -9 -9 7 2 11 0 29 -6 41 -17 31 -4 25 14 -6 l15 -28 -6 30 c-3 17
-8 37 -11 45 -4 8 -7 30 -9 49 -2 18 -11 39 -21 47 -10 7 -13 14 -6 14 9 0 8
10 -2 41 -17 47 -66 141 -78 150 -5 3 -9 10 -10 15 -1 5 -7 9 -13 8 -6 -1 -11
5 -11 12 0 7 5 11 11 8 6 -3 2 2 -9 11 -11 9 -20 21 -20 27 0 6 -7 13 -15 15
-13 4 -13 3 0 -6 12 -8 11 -10 -7 -8 -12 0 -20 3 -18 6 3 2 0 10 -6 17 -7 8
-6 14 2 20 7 4 9 3 5 -4 -3 -6 -2 -13 3 -16 5 -4 12 -2 15 3 3 5 -19 28 -50
51 -30 23 -53 44 -50 48 4 3 13 -3 21 -14 8 -10 15 -13 15 -7 0 7 -12 20 -27
30 -16 10 -31 23 -36 29 -4 7 -24 23 -45 35 -20 13 -40 28 -44 33 -5 7 -8 5
-8 -4 -1 -9 -5 -6 -10 7 -7 16 -14 21 -26 16 -12 -4 -15 -3 -10 5 4 7 2 10 -7
6 -23 -9 -70 14 -63 32 4 11 -2 10 -24 -6 -17 -12 -30 -18 -30 -13 0 4 9 14
21 21 12 7 18 16 15 19 -3 3 -12 0 -21 -7 -13 -11 -14 -10 -8 6 6 17 5 17 -10
5 -9 -7 -14 -18 -10 -24 4 -6 1 -7 -6 -2 -9 5 -10 10 -2 18 18 18 13 27 -13
27 -14 0 -28 5 -31 10 -4 6 -10 8 -15 5 -5 -3 -12 0 -15 6 -4 6 -18 8 -32 4
-17 -4 -23 -2 -18 6 5 8 -6 9 -39 5 -30 -4 -46 -3 -46 4 0 7 -8 9 -20 5 -12
-4 -20 -2 -20 6 0 9 -4 8 -15 -1 -10 -9 -15 -9 -15 -1 0 7 -25 11 -71 11 -41
0 -68 -4 -64 -9z m147 -31 c8 0 21 -6 29 -12 13 -11 11 -16 -12 -39 l-27 -26
-11 24 c-6 14 -9 29 -6 34 3 5 1 19 -5 31 -10 21 -10 21 3 6 8 -10 21 -18 29
-18z m-167 10 c3 -6 -1 -7 -9 -4 -18 7 -21 14 -7 14 6 0 13 -4 16 -10z m116
-33 c-10 -9 -11 -8 -5 6 3 10 9 15 12 12 3 -3 0 -11 -7 -18z m174 3 c-35 -7
-63 -1 -46 10 6 3 26 4 44 1 l32 -5 -30 -6z m-307 -7 c-2 -12 3 -18 14 -17 9
1 19 -4 22 -11 3 -8 -2 -11 -14 -8 -25 7 -44 29 -35 43 10 16 16 12 13 -7z
m392 -3 c0 -5 -5 -10 -11 -10 -5 0 -7 5 -4 10 3 6 8 10 11 10 2 0 4 -4 4 -10z
m-435 -37 c0 -12 -5 -26 -9 -30 -5 -4 -6 -2 -2 5 8 14 5 15 -19 6 -13 -6 -14
-9 -3 -16 8 -6 5 -7 -12 -2 -23 6 -24 6 -10 -11 8 -11 10 -16 3 -12 -6 4 -13
2 -15 -5 -2 -6 -10 -8 -17 -4 -9 6 -9 11 1 23 7 9 12 26 11 37 -1 15 0 16 3 4
3 -10 9 -18 14 -18 5 0 7 7 3 16 -4 12 0 14 23 8 26 -6 27 -5 11 8 -18 13 -18
14 1 14 13 0 18 -7 17 -23z m135 12 c-13 -15 -5 -20 27 -16 6 1 14 -3 18 -9 3
-6 0 -7 -9 -4 -9 3 -16 1 -16 -5 0 -6 5 -11 12 -11 6 0 8 -3 5 -6 -4 -4 -17 4
-31 17 -18 17 -22 27 -14 36 6 7 13 13 15 13 3 0 0 -7 -7 -15z m-254 -29 c1
-10 -4 -12 -14 -8 -11 4 -12 7 -4 10 10 3 10 7 0 20 -10 14 -10 15 2 5 8 -7
15 -19 16 -27z m-131 14 c-3 -5 -1 -10 6 -10 7 0 10 -2 7 -5 -3 -3 -13 -2 -22
1 -14 5 -15 9 -4 15 17 11 20 11 13 -1z m325 -34 c0 -14 -42 -36 -68 -35 -9 0
-3 5 14 10 35 10 51 34 28 43 -9 4 -18 -3 -24 -17 -8 -20 -9 -19 -7 10 1 31 1
31 29 17 15 -8 28 -20 28 -28z m330 31 c0 -2 -10 -12 -22 -23 l-23 -19 19 23
c18 21 26 27 26 19z m-65 -17 c-3 -5 -1 -10 5 -10 6 0 8 -4 5 -10 -3 -5 -1
-10 6 -10 19 0 0 -17 -45 -40 l-38 -19 7 27 c7 28 42 72 57 72 5 0 6 -4 3 -10z
m-602 -13 c3 -8 -1 -14 -8 -14 -7 0 -11 6 -8 14 3 7 6 13 8 13 2 0 5 -6 8 -13z
m393 -9 c5 -7 2 -9 -7 -4 -8 5 -8 2 2 -6 9 -7 14 -19 11 -26 -3 -10 -8 -9 -23
4 -14 13 -16 20 -8 31 14 16 16 16 25 1z m60 -4 c-4 -11 -2 -15 7 -11 8 3 20
1 28 -5 11 -8 10 -9 -4 -4 -11 3 -20 0 -23 -9 -4 -8 -10 -15 -15 -15 -4 0 -5
7 -2 17 4 10 2 14 -5 9 -6 -3 -14 -1 -18 5 -4 8 -3 9 5 5 6 -4 14 0 17 8 3 9
8 16 11 16 3 0 2 -7 -1 -16z m394 5 c0 -4 -7 -9 -15 -13 -8 -3 -15 -13 -15
-23 0 -13 -3 -14 -12 -5 -7 7 -25 12 -42 12 -29 0 -29 0 -11 20 14 15 29 20
57 18 21 -1 38 -5 38 -9z m-155 -20 c-4 -5 -2 -9 4 -9 5 0 11 6 14 13 3 6 4 2
4 -10 -1 -16 -5 -19 -17 -13 -8 4 -18 7 -22 7 -3 -1 -10 2 -15 6 -4 5 -1 7 7
5 8 -2 14 3 12 10 -1 8 2 11 8 7 6 -3 8 -11 5 -16z m232 6 c0 -8 -4 -12 -9 -9
-5 3 -6 10 -3 15 9 13 12 11 12 -6z m-1007 -15 c0 -5 -5 -10 -11 -10 -5 0 -7
5 -4 10 3 6 8 10 11 10 2 0 4 -4 4 -10z m267 -42 c1 -14 -1 -15 -12 -5 -7 6
-11 14 -9 16 2 2 -2 13 -8 25 -11 21 -10 21 9 1 10 -11 20 -27 20 -37z m-55
24 c-7 -5 -10 -16 -7 -24 4 -9 2 -18 -2 -21 -5 -3 -8 6 -7 21 2 33 1 32 17 32
9 0 9 -2 -1 -8z m853 -4 c5 4 5 1 1 -6 -6 -10 -11 -10 -22 -1 -8 6 -14 14 -14
16 0 3 6 0 13 -6 8 -6 18 -7 22 -3z m-601 -6 c2 -4 -5 -9 -17 -9 -17 -2 -19 0
-7 7 18 12 18 12 24 2z m319 -12 c3 -11 1 -18 -4 -14 -5 3 -9 0 -9 -7 0 -7 -6
-4 -14 6 -8 11 -12 23 -10 27 10 15 32 8 37 -12z m-538 -19 c-6 -5 -25 10 -25
20 0 5 6 4 14 -3 8 -7 12 -15 11 -17z m312 23 c-3 -3 -12 -4 -19 -1 -8 3 -5 6
6 6 11 1 17 -2 13 -5z m386 -25 c7 -1 36 -1 65 -1 54 0 69 -11 30 -22 -37 -10
-75 -7 -146 10 -77 19 -96 30 -48 28 18 -1 39 2 46 6 8 5 19 2 27 -6 8 -8 20
-14 26 -15z m-535 0 c-2 -3 4 -14 12 -25 14 -19 14 -19 -8 0 -23 20 -30 40
-11 34 6 -2 9 -6 7 -9z m118 2 c-3 -5 1 -11 9 -15 9 -3 12 -12 8 -22 -5 -13
-3 -15 7 -9 9 5 11 4 6 -3 -4 -7 -2 -12 4 -12 6 0 8 -4 5 -10 -10 -16 -22 -12
-28 9 -6 25 -43 45 -53 29 -5 -7 -3 -8 6 -3 9 6 11 4 5 -5 -5 -8 -4 -11 2 -7
6 4 17 0 24 -9 11 -14 10 -16 -11 -12 -14 2 -25 -2 -25 -9 0 -6 -4 -15 -8 -20
-5 -4 -7 -3 -5 2 2 6 -1 11 -7 12 -13 3 -14 -30 -1 -39 13 -9 46 14 39 27 -3
5 5 0 18 -12 18 -18 20 -26 11 -35 -9 -9 -7 -15 6 -25 15 -13 14 -13 -6 -3
-12 6 -20 15 -17 21 4 5 1 9 -5 9 -6 0 -8 5 -5 10 11 18 -10 10 -28 -10 -9
-11 -21 -20 -27 -20 -15 0 -23 46 -11 68 7 13 7 22 -1 30 -12 12 9 12 29 -1 6
-4 14 -3 18 3 3 5 1 10 -5 10 -7 0 -10 6 -7 14 3 7 0 20 -6 27 -10 11 -9 11 4
1 12 -9 20 -9 35 3 22 17 27 18 20 6z m210 -17 c-5 -17 -3 -23 4 -19 6 3 10
-3 10 -14 0 -24 -38 -29 -58 -9 -16 16 -15 28 3 28 8 0 20 9 27 20 17 27 21
25 14 -6z m-581 7 c3 -5 0 -13 -6 -17 -7 -4 -9 -3 -5 4 3 5 0 13 -6 15 -9 4
-10 6 -1 6 6 1 14 -3 18 -8z m216 -2 c14 -7 17 -14 10 -22 -5 -7 -10 -15 -10
-19 -1 -5 -3 -8 -6 -8 -3 0 -10 0 -17 0 -6 0 -4 6 6 13 17 13 17 14 1 30 -19
19 -13 22 16 6z m248 -12 c0 -9 -2 -9 -5 0 -3 7 -13 9 -22 6 -14 -4 -14 -3 -2
5 16 12 30 7 29 -11z m-291 -3 c6 3 14 1 18 -5 4 -7 3 -9 -4 -5 -5 3 -12 1
-14 -6 -4 -10 -9 -9 -21 3 -9 9 -13 19 -10 23 4 3 10 1 14 -5 4 -6 11 -9 17
-5z m-136 -1 c-6 -2 -9 -10 -6 -15 4 -7 2 -8 -5 -4 -13 9 -5 26 12 25 9 0 8
-2 -1 -6z m53 -3 c-3 -5 -12 -10 -18 -10 -7 0 -6 4 3 10 19 12 23 12 15 0z
m898 -20 c3 -11 0 -23 -5 -27 -7 -3 -8 -1 -4 5 4 7 0 12 -11 13 -10 0 -13 3
-5 6 20 8 14 22 -8 16 -12 -3 -20 -14 -20 -28 0 -12 -8 -29 -17 -37 -23 -21
-93 -40 -93 -26 0 6 -7 7 -16 4 -8 -3 -12 -2 -9 4 3 5 -14 10 -37 12 -30 2
-44 8 -46 19 -4 21 24 29 103 29 34 1 80 9 105 19 50 21 55 20 63 -9z m-539
14 c9 -3 16 -11 16 -16 0 -6 -6 -5 -15 2 -8 6 -20 8 -26 4 -8 -4 -9 -3 -5 4 8
14 9 14 30 6z m-309 -34 c0 -15 -7 -24 -18 -26 -15 -2 -18 2 -12 23 4 18 2 23
-6 17 -7 -4 -9 -3 -6 4 12 19 42 6 42 -18z m-115 -7 c0 -9 8 -22 18 -30 15
-12 14 -12 -10 -2 -27 12 -48 62 -21 52 7 -3 13 -12 13 -20z m501 10 c12 -16
12 -17 -2 -6 -9 7 -20 9 -24 5 -5 -4 -5 -1 -1 6 9 16 11 15 27 -5z m-346 -3
c3 -6 -1 -7 -9 -4 -18 7 -21 14 -7 14 6 0 13 -4 16 -10z m279 -22 c-4 -6 0
-15 7 -20 12 -8 11 -9 -1 -5 -8 2 -16 13 -16 25 -1 12 3 19 8 16 4 -3 5 -10 2
-16z m-471 -3 c-3 -9 -8 -14 -10 -11 -3 3 -2 9 2 15 9 16 15 13 8 -4z m251 2
c16 -12 16 -13 -3 -13 -11 0 -18 3 -15 7 2 4 -2 10 -8 12 -7 3 -8 6 -2 6 5 1
18 -5 28 -12z m259 -7 c3 -11 1 -20 -4 -20 -5 0 -9 9 -9 20 0 11 2 20 4 20 2
0 6 -9 9 -20z m173 8 c4 -7 3 -8 -4 -4 -7 4 -12 2 -12 -5 0 -7 -3 -10 -6 -6
-6 5 3 27 11 27 2 0 7 -5 11 -12z m-486 -13 c-7 -8 -17 -15 -23 -15 -6 0 -2 7
9 15 25 19 30 19 14 0z m560 -58 c0 -6 -17 -7 -40 -3 -22 3 -40 4 -40 1 0 -16
48 -68 70 -77 45 -18 1 -21 -46 -3 -40 15 -43 18 -28 30 9 6 14 17 10 24 -10
15 -25 5 -36 -25 -7 -16 -17 -24 -34 -24 -24 0 -25 3 -23 53 2 43 5 53 20 53
14 0 17 -6 12 -24 -4 -17 -2 -22 6 -16 9 5 10 -1 6 -22 -6 -27 -6 -27 5 -6 6
12 15 22 20 22 4 0 8 9 8 20 0 17 5 19 25 14 18 -4 25 -2 25 8 0 23 -11 28
-34 16 -21 -11 -21 -11 -1 9 20 20 20 20 48 -10 15 -17 27 -35 27 -40z m240
50 c11 -5 9 -6 -4 -4 -11 1 -21 9 -23 17 -3 10 -2 11 4 4 4 -6 15 -14 23 -17z
m-353 -2 c0 -8 -4 -12 -9 -9 -5 3 -6 10 -3 15 9 13 12 11 12 -6z m-617 0 c0
-2 -10 -10 -22 -16 -21 -11 -22 -11 -9 4 13 16 31 23 31 12z m540 -20 c-7 -9
-15 -13 -19 -10 -3 3 1 10 9 15 21 14 24 12 10 -5z m-505 -16 c-4 -5 -12 -9
-18 -8 -9 0 -8 2 1 6 6 2 9 10 6 15 -4 7 -2 8 5 4 6 -4 9 -12 6 -17z m111 -10
l16 -24 -21 23 c-11 13 -23 22 -26 22 -3 -1 -11 1 -18 4 -6 2 -2 4 11 2 12 -1
30 -13 38 -27z m-526 10 c0 -5 -4 -7 -10 -4 -5 3 -10 1 -10 -4 0 -6 -5 -11
-11 -11 -8 0 -8 5 1 15 14 17 30 20 30 4z m810 -5 c0 -8 5 -12 11 -8 8 4 9 -1
4 -16 -5 -16 -4 -20 5 -15 8 5 11 1 8 -10 -4 -22 -28 -32 -28 -12 0 8 -9 26
-20 39 -20 26 -18 38 7 38 7 0 13 -7 13 -16z m337 1 c0 -8 -4 -12 -9 -9 -5 3
-6 10 -3 15 9 13 12 11 12 -6z m-541 -22 c-7 23 1 22 14 -2 7 -15 7 -19 -4
-17 -18 3 -46 26 -46 38 0 6 9 0 21 -13 15 -17 19 -19 15 -6z m748 19 c3 -5
-1 -9 -9 -9 -8 0 -12 4 -9 9 3 4 7 8 9 8 2 0 6 -4 9 -8z m68 1 c-6 -2 -10 -9
-7 -14 4 -5 -1 -6 -10 -2 -13 5 -14 7 -3 14 7 5 18 8 23 8 6 0 4 -3 -3 -6z
m-927 -12 c3 -5 1 -12 -5 -16 -5 -3 -10 1 -10 9 0 18 6 21 15 7z m398 -19 c-3
-12 -9 -22 -13 -22 -11 0 -7 34 5 42 13 10 15 6 8 -20z m37 18 c0 -5 -5 -10
-11 -10 -5 0 -7 5 -4 10 3 6 8 10 11 10 2 0 4 -4 4 -10z m556 -12 c5 -8 2 -9
-9 -5 -10 3 -17 2 -17 -3 0 -6 5 -10 12 -10 6 0 8 -3 5 -6 -4 -4 -13 -2 -20 4
-8 7 -18 8 -23 4 -4 -4 -2 1 5 11 15 20 37 22 47 5z m-956 -17 c7 -14 7 -22 0
-26 -6 -4 -10 -3 -9 2 4 21 -2 34 -13 27 -7 -4 -8 -3 -4 4 10 16 14 15 26 -7z
m648 -12 c-3 -8 -7 -3 -11 10 -4 17 -3 21 5 13 5 -5 8 -16 6 -23z m-404 0 c-3
-5 -10 -7 -15 -3 -5 3 -7 10 -3 15 3 5 10 7 15 3 5 -3 7 -10 3 -15z m509 10
c33 -9 37 -13 37 -42 0 -29 -19 -78 -20 -50 0 13 -52 33 -88 33 l-25 0 22 24
c13 14 20 29 16 35 -8 14 9 14 58 0z m120 4 c-7 -2 -19 -2 -25 0 -7 3 -2 5 12
5 14 0 19 -2 13 -5z m-749 -11 c3 -5 -1 -9 -9 -9 -8 0 -12 4 -9 9 3 4 7 8 9 8
2 0 6 -4 9 -8z m61 -13 c-4 -13 -3 -19 2 -16 11 7 37 -42 28 -51 -3 -3 -5 0
-5 7 0 9 -9 12 -25 9 -19 -4 -25 -1 -25 13 0 9 -3 24 -6 32 -3 10 2 17 13 20
10 3 19 5 21 6 2 0 0 -9 -3 -20z m632 6 c0 -8 -4 -12 -9 -9 -4 3 -8 9 -8 15 0
5 4 9 8 9 5 0 9 -7 9 -15z m-847 -5 c-11 -7 -60 -2 -60 6 0 2 16 3 35 2 20 -1
31 -4 25 -8z m921 -3 c-7 -7 -18 -7 -33 0 -20 9 -20 10 10 10 22 0 29 -4 23
-10z m-1497 -5 c3 -5 -1 -9 -9 -9 -8 0 -12 4 -9 9 3 4 7 8 9 8 2 0 6 -4 9 -8z
m646 -13 c0 -5 -4 -9 -8 -9 -5 0 -9 7 -9 15 0 8 4 12 9 9 4 -3 8 -9 8 -15z
m58 9 c18 -18 15 -38 -5 -31 -13 5 -15 2 -10 -11 4 -11 3 -15 -4 -11 -6 4 -8
13 -5 21 3 7 1 16 -4 19 -14 9 -12 25 3 25 7 0 18 -5 25 -12z m880 -11 c18
-19 20 -29 14 -70 -7 -46 -8 -47 -28 -32 -14 9 -24 29 -26 52 -3 21 -8 46 -12
56 -12 26 26 22 52 -6z m-371 -9 c-3 -8 -6 -5 -6 6 -1 11 2 17 5 13 3 -3 4
-12 1 -19z m53 18 c0 -2 -8 -10 -17 -17 -16 -13 -17 -12 -4 4 13 16 21 21 21
13z m-1178 -18 c-9 -9 -8 -16 6 -32 17 -21 17 -21 -5 -2 -18 15 -20 22 -12 33
6 7 14 13 17 13 3 0 1 -5 -6 -12z m63 -4 c-16 -7 -27 -13 -23 -14 3 0 14 -3
24 -7 11 -4 15 -2 11 4 -4 6 13 10 48 10 30 0 52 -4 49 -9 -3 -5 6 -6 22 -2
19 5 25 4 20 -5 -7 -10 11 -16 42 -12 6 1 12 -3 12 -8 0 -6 16 1 36 14 56 38
76 33 118 -30 20 -31 34 -60 31 -66 -6 -9 -75 65 -75 82 0 5 -5 9 -11 9 -6 0
-4 -9 5 -22 12 -17 13 -25 3 -37 -8 -10 -8 -13 -1 -8 7 4 15 0 18 -9 3 -9 13
-14 20 -11 8 3 17 -1 20 -10 5 -13 9 -13 23 -2 15 12 16 12 10 -4 -4 -10 -3
-16 2 -13 5 3 11 -1 15 -9 3 -9 12 -12 22 -8 13 5 15 3 9 -7 -6 -9 -4 -11 5
-5 9 5 6 13 -13 29 -13 11 -45 52 -71 89 -42 62 -44 68 -24 65 26 -4 130 -160
122 -183 -5 -13 33 -42 49 -37 4 1 7 -3 7 -10 0 -6 3 -8 7 -5 3 4 13 -2 20
-13 8 -11 18 -18 23 -15 4 3 11 -2 14 -11 4 -9 9 -14 13 -10 3 3 13 -3 20 -14
8 -11 18 -18 22 -16 4 3 17 -7 28 -23 34 -46 51 -37 49 27 -1 65 -21 82 -32
27 -7 -41 -30 -42 -27 -1 2 28 -3 31 -26 17 -15 -9 -61 13 -61 29 0 9 70 36
83 32 4 -1 7 2 7 7 0 5 21 12 48 16 26 3 58 8 72 11 21 4 22 3 6 -4 -19 -8
-19 -9 2 -14 13 -4 28 0 37 9 8 8 15 11 15 6 0 -4 5 -1 10 7 8 13 10 12 10 -2
0 -10 -7 -18 -15 -18 -9 0 -12 -6 -8 -17 5 -12 8 -13 11 -4 4 11 6 11 13 0 6
-9 9 -10 9 -2 0 7 9 9 27 4 37 -10 44 -46 38 -196 -2 -66 0 -111 4 -101 10 27
19 7 11 -24 l-6 -25 -17 32 c-15 28 -16 50 -11 144 7 113 3 128 -33 129 -16 0
-28 -156 -15 -203 12 -44 1 -57 -18 -21 -16 28 -19 119 -6 180 7 37 6 42 -13
47 -23 6 -25 -2 -40 -126 -6 -55 -5 -70 8 -80 12 -10 13 -9 7 3 -4 8 7 -1 24
-20 17 -19 35 -35 39 -35 16 0 52 -53 41 -60 -5 -3 -10 -2 -10 3 0 13 -175
103 -184 95 -3 -3 -6 -2 -6 4 0 16 -28 24 -36 10 -4 -7 -4 -9 1 -5 4 4 14 0
22 -8 8 -8 19 -12 24 -9 5 4 9 1 9 -6 0 -7 3 -10 6 -6 4 3 13 -1 21 -9 8 -8
19 -12 24 -9 5 4 9 1 9 -6 0 -7 3 -10 6 -6 4 3 13 -1 21 -9 8 -8 19 -12 24 -9
5 4 9 1 9 -5 0 -6 5 -8 10 -5 6 3 10 2 10 -2 0 -5 14 -17 31 -27 17 -10 27
-21 22 -25 -27 -17 -46 -101 -23 -101 6 0 10 17 10 38 0 36 14 62 32 62 12 0
10 -62 -3 -99 -9 -24 -14 -29 -24 -21 -11 9 -12 7 -8 -9 3 -14 -4 -28 -23 -44
-17 -15 -23 -26 -16 -31 6 -4 18 4 27 18 9 14 22 24 28 22 7 -1 9 -1 5 1 -16
9 -7 21 10 16 10 -2 24 2 30 10 13 15 19 128 8 146 -4 6 -2 21 4 33 11 22 11
22 -5 3 -17 -21 -58 -30 -52 -11 2 6 10 11 18 11 8 0 16 11 17 24 3 19 6 21
13 10 5 -9 9 -10 9 -2 0 6 -4 15 -10 18 -19 12 -5 128 25 206 4 12 -1 18 -23
22 -29 6 -30 8 -31 67 0 33 4 60 9 60 11 0 24 -65 15 -79 -3 -6 -2 -11 4 -11
5 0 17 -7 25 -16 15 -14 16 -14 16 0 0 9 -6 16 -14 16 -8 0 -15 13 -18 33 -3
29 -1 32 24 33 18 1 28 -4 28 -13 0 -8 4 -12 9 -9 5 4 12 0 14 -6 4 -9 6 -10
6 -1 1 6 -3 15 -9 18 -5 3 -10 17 -10 30 0 27 25 39 64 29 21 -5 26 -3 26 12
0 16 5 14 29 -11 25 -27 27 -33 16 -55 -7 -14 -10 -30 -8 -37 2 -7 -1 -21 -6
-32 -8 -14 -8 -22 0 -27 6 -3 9 -14 6 -24 -7 -26 15 -15 40 19 l21 27 -24 23
c-27 26 -31 41 -10 41 8 0 17 -11 20 -25 4 -14 11 -25 16 -25 5 0 7 -13 4 -29
-5 -22 1 -43 19 -75 16 -29 22 -48 15 -52 -6 -4 -5 -10 3 -15 10 -6 10 -9 2
-9 -16 0 -26 17 -13 25 14 9 -12 46 -28 40 -7 -3 -11 -1 -8 4 7 11 -40 35 -53
26 -7 -4 -18 -2 -26 5 -19 16 -29 -4 -14 -31 9 -17 8 -20 -3 -17 -7 3 -14 10
-14 16 -1 7 -2 15 -3 19 0 4 -15 -21 -32 -55 -26 -53 -30 -73 -28 -125 3 -70
-7 -134 -27 -184 -8 -19 -12 -38 -9 -43 3 -5 1 -11 -4 -15 -11 -6 2 -23 54
-75 16 -16 33 -26 37 -22 5 5 15 40 23 79 8 39 31 104 50 144 19 41 35 79 35
86 0 6 15 29 34 49 19 21 33 41 30 45 -2 4 1 11 7 15 8 4 9 3 5 -4 -10 -16 7
-15 23 1 11 10 11 8 1 -12 -11 -22 -10 -23 8 -19 16 5 19 2 15 -11 -5 -13 -3
-13 15 3 22 19 22 19 23 -2 3 -40 4 -44 22 -57 12 -8 14 -16 8 -20 -6 -3 -11
-2 -11 2 0 17 -84 73 -108 73 -14 0 -22 -3 -19 -7 4 -3 -1 -11 -10 -18 -13
-10 -11 -11 16 -7 42 6 71 -20 71 -63 0 -43 -29 -69 -63 -56 -14 5 -32 20 -40
32 l-16 22 -6 -29 c-4 -16 -20 -60 -35 -99 -31 -76 -43 -135 -29 -135 15 0 10
-20 -7 -27 -9 -3 -20 0 -24 7 -6 9 -9 9 -15 1 -5 -9 -11 -9 -23 1 -12 9 -12 6
2 -10 13 -15 25 -20 42 -16 16 4 24 2 24 -7 0 -8 6 -5 15 7 8 10 15 32 15 47
0 37 24 92 55 129 18 22 23 36 19 55 -6 23 -5 24 15 11 30 -18 26 -49 -10 -84
-37 -34 -70 -102 -71 -147 -1 -17 -7 -37 -14 -44 -11 -11 -17 -9 -32 8 -12 12
-22 16 -26 10 -4 -5 2 -14 11 -20 10 -6 14 -11 9 -11 -5 0 -3 -7 4 -15 7 -8
16 -12 21 -9 5 3 10 0 10 -5 1 -6 2 -14 3 -18 0 -5 11 -18 23 -30 13 -13 20
-29 17 -38 -4 -8 -1 -15 6 -15 7 0 10 -6 7 -14 -3 -8 -1 -16 4 -18 6 -2 7 -12
1 -27 -9 -24 -9 -24 -15 8 -4 18 -11 30 -17 26 -6 -4 -8 -10 -5 -15 9 -14 -21
-5 -46 13 -13 10 -18 15 -12 12 39 -19 73 -10 58 15 -5 7 -11 8 -19 1 -8 -7
-17 -6 -26 1 -12 8 -12 9 2 4 28 -8 29 9 3 34 -14 13 -29 19 -36 15 -7 -5 -10
-4 -5 3 7 12 -59 56 -73 48 -5 -4 -12 3 -16 14 -4 11 -11 18 -16 14 -6 -4 -6
-10 0 -18 6 -7 7 -17 3 -21 -4 -5 -2 -5 5 -1 7 4 11 0 11 -11 -1 -10 2 -43 6
-74 6 -44 4 -58 -8 -69 -16 -13 -23 -35 -8 -26 5 3 6 -9 4 -26 -3 -22 -7 -27
-14 -17 -7 10 -8 6 -5 -13 2 -16 0 -28 -5 -28 -5 0 -6 -4 -3 -10 3 -5 1 -18
-4 -27 -8 -14 -10 -8 -11 29 0 34 -6 54 -22 73 -21 24 -25 25 -43 11 -19 -15
-19 -15 4 -9 16 4 22 2 18 -5 -7 -11 -24 -11 -42 -1 -5 4 -18 5 -27 4 -10 -2
-18 1 -18 7 0 6 7 8 15 5 8 -4 17 -2 20 3 4 6 -1 10 -9 10 -18 0 -20 8 -6 30
5 8 13 11 17 6 4 -5 2 -11 -5 -13 -10 -4 -9 -8 5 -18 26 -19 43 -7 43 29 0 33
-27 67 -64 80 -17 6 -18 3 -12 -35 5 -30 3 -39 -5 -33 -9 5 -10 1 -7 -14 4
-12 2 -25 -4 -28 -5 -3 -7 -17 -4 -29 3 -13 1 -25 -4 -27 -6 -2 -12 -13 -13
-26 0 -12 -5 -22 -10 -22 -4 0 -5 -5 -2 -10 3 -6 1 -10 -5 -10 -7 0 -10 -6 -7
-14 3 -8 3 -16 -1 -18 -4 -2 -17 -23 -28 -48 l-22 -45 3 72 c2 39 5 75 9 81 3
5 -3 32 -13 60 -20 53 -17 93 7 139 9 17 9 24 0 29 -6 4 -8 3 -5 -3 4 -6 0
-13 -8 -17 -9 -3 -12 -12 -8 -22 4 -12 3 -15 -5 -10 -8 5 -10 1 -5 -10 3 -10
2 -15 -3 -12 -5 3 -18 -6 -28 -20 -12 -16 -14 -22 -5 -17 8 4 -6 -11 -31 -33
-25 -22 -45 -44 -45 -49 0 -6 -15 -22 -33 -37 -17 -16 -31 -31 -29 -34 2 -4
-18 -27 -45 -51 -39 -36 -48 -40 -48 -24 0 10 7 28 15 39 8 10 15 29 15 41 0
12 5 25 10 28 6 3 10 20 10 36 0 16 11 51 25 77 14 26 25 52 25 59 0 6 61 69
135 139 74 71 132 131 129 134 -3 3 -12 -4 -20 -15 -8 -11 -17 -19 -19 -17 -3
1 -5 -1 -4 -5 0 -4 -9 -10 -20 -15 -12 -4 -21 -13 -21 -21 0 -7 -16 -21 -36
-30 -19 -10 -32 -21 -29 -27 3 -5 -7 -16 -22 -24 -16 -8 -68 -55 -116 -105
-53 -56 -92 -88 -101 -85 -8 3 -17 0 -21 -5 -3 -6 -11 -8 -17 -5 -7 5 -8 2 -3
-6 6 -10 3 -12 -14 -7 -26 6 -52 -17 -45 -41 5 -13 4 -14 -4 -3 -6 8 -15 10
-22 6 -9 -6 -11 -4 -5 6 8 14 -17 -5 -67 -50 -35 -31 -36 -14 -3 57 16 35 35
58 56 70 47 25 69 49 69 76 0 13 9 35 21 50 11 14 18 30 14 36 -3 5 31 27 77
48 47 22 78 41 71 45 -6 4 -18 1 -26 -7 -8 -8 -17 -12 -21 -9 -3 4 -6 1 -6 -5
0 -6 -6 -9 -14 -6 -7 3 -20 -2 -29 -10 -8 -8 -17 -12 -21 -9 -3 4 -6 1 -6 -6
0 -7 -4 -10 -9 -6 -5 3 -15 -1 -23 -8 -7 -8 -19 -12 -27 -9 -8 3 -11 0 -7 -7
4 -6 15 -11 24 -11 15 0 15 -2 2 -10 -8 -5 -15 -15 -15 -21 0 -7 -6 -13 -13
-15 -7 -1 -8 0 -2 3 7 3 7 10 -2 21 -10 12 -10 14 0 8 6 -4 12 -3 12 2 0 16
-29 22 -42 8 -7 -7 -19 -11 -27 -8 -8 3 -11 0 -7 -6 3 -5 -1 -13 -10 -16 -8
-3 -12 -2 -9 4 4 6 -5 5 -19 -2 -14 -6 -26 -15 -26 -20 0 -5 -4 -6 -10 -3 -5
3 -10 1 -10 -5 0 -6 -4 -9 -9 -5 -5 3 -17 -2 -25 -11 -9 -8 -16 -12 -16 -8 0
3 -6 1 -13 -5 -8 -6 -17 -8 -20 -4 -4 3 -7 2 -7 -4 0 -5 -6 -10 -12 -10 -7 -1
-33 -7 -58 -15 l-46 -15 46 48 c29 30 64 55 95 66 31 12 51 25 53 37 3 13 0
16 -9 11 -8 -5 -10 -4 -5 3 4 7 18 12 31 12 32 0 100 66 78 74 -9 4 -21 2 -27
-3 -7 -6 -22 -8 -34 -4 -23 6 -31 -12 -9 -20 9 -4 9 -6 0 -6 -6 -1 -15 3 -18
9 -8 12 -55 13 -55 1 0 -5 -16 -9 -36 -8 -19 1 -39 -5 -43 -12 -6 -8 -17 -11
-31 -6 -12 4 -20 3 -17 -2 3 -4 -22 -9 -55 -9 l-60 -1 74 35 c40 19 93 42 118
52 24 10 46 24 48 31 2 10 1 10 -7 -1 -9 -13 -13 -12 -33 8 -12 12 -17 22 -10
22 6 0 12 -6 12 -12 0 -9 4 -8 10 2 8 12 2 16 -28 22 -56 10 -104 9 -97 -2 3
-5 1 -10 -5 -10 -6 0 -8 -5 -5 -10 4 -6 11 -8 16 -5 5 4 9 2 9 -3 0 -6 -7 -13
-16 -16 -8 -3 -12 -2 -9 3 9 16 -12 22 -39 11 -17 -6 -27 -6 -32 2 -4 6 -3 8
3 5 6 -4 14 0 17 9 4 10 13 13 28 9 17 -5 19 -4 9 4 -12 7 -7 13 22 27 20 10
37 21 37 26 0 4 7 5 15 2 21 -8 19 -1 -5 21 -17 16 -20 16 -15 3 8 -20 -32
-45 -47 -30 -11 11 -50 4 -43 -8 3 -5 14 -6 25 -3 32 8 23 -3 -24 -33 -25 -16
-43 -31 -40 -35 2 -4 -4 -6 -13 -5 -12 2 -19 14 -21 36 -2 19 -13 47 -23 62
l-20 28 33 0 c25 0 29 3 18 10 -8 5 -25 7 -37 3 -14 -3 -23 -1 -23 7 0 6 -6 8
-12 5 -7 -4 2 7 20 24 38 36 42 50 7 27 -30 -20 -35 -20 -35 -2 0 19 48 30 66
15 11 -9 14 -9 14 0 0 7 4 10 8 7 5 -3 19 4 31 15 12 11 27 17 34 13 9 -5 9
-4 1 5 -9 10 -18 10 -41 -2 -16 -9 -54 -17 -84 -19 -31 -3 -62 -8 -70 -13 -12
-7 -12 -6 -1 7 10 13 11 22 3 37 -24 44 -6 141 26 141 15 0 16 2 3 10 -12 7
-9 16 18 49 24 30 32 50 32 79 0 25 6 45 17 53 15 12 16 12 11 -6 -4 -15 2
-24 18 -32 13 -6 23 -8 22 -4 -2 23 5 31 30 31 15 0 33 5 39 11 8 8 29 -7 77
-57 36 -37 64 -70 61 -72 -3 -3 -14 3 -25 13 -11 10 -20 15 -20 10 0 -4 -8 3
-18 16 -12 13 -21 18 -25 12 -4 -6 4 -18 18 -27 14 -9 25 -14 25 -10 0 4 10
-6 22 -21 18 -23 22 -25 30 -11 5 9 18 20 28 26 17 9 20 7 20 -15 0 -19 -5
-25 -21 -25 -11 0 -17 -5 -14 -10 4 -6 10 -8 15 -5 13 8 5 -24 -10 -38 -8 -7
-10 -8 -7 -1 4 7 0 14 -8 18 -8 3 -17 0 -21 -7 -4 -7 -4 -9 1 -5 7 7 34 -18
35 -33 0 -3 -13 -6 -30 -6 -16 0 -27 4 -24 9 5 7 -1 9 -38 12 -7 1 -16 5 -19
10 -4 4 -15 3 -25 -3 -18 -10 -18 -10 1 -12 11 -1 26 -2 34 -1 8 0 20 -6 28
-14 8 -8 22 -14 32 -14 10 0 18 -6 18 -13 0 -14 -84 -17 -104 -4 -6 4 -36 7
-65 7 -29 0 -79 2 -112 6 -41 4 -56 3 -52 -5 5 -7 22 -9 47 -5 25 4 44 2 54
-6 10 -8 31 -11 63 -6 60 7 85 -6 43 -24 -33 -13 -34 -31 -1 -23 11 3 17 10
13 16 -4 6 0 8 10 4 10 -3 17 -2 17 2 0 5 10 7 22 3 14 -3 19 -1 14 6 -4 7 5
10 26 10 18 0 95 1 171 3 75 2 137 0 137 -5 0 -5 18 -6 39 -2 26 4 41 2 43 -5
3 -9 14 -8 43 1 24 8 34 15 25 18 -8 2 -22 14 -31 25 -17 20 -17 20 -12 -7 4
-22 2 -27 -8 -24 -8 3 -14 18 -14 34 0 24 -5 30 -26 32 -21 2 -28 -2 -33 -22
-3 -15 -13 -26 -21 -26 -11 0 -12 5 -5 25 8 22 7 25 -25 31 -19 3 -51 19 -71
35 -20 16 -47 29 -60 29 -23 0 -54 23 -54 41 0 5 7 9 15 9 22 0 18 21 -10 55
-30 36 -33 25 -4 -16 16 -23 17 -29 6 -29 -8 0 -22 11 -31 25 -9 14 -22 25
-28 25 -6 0 -2 -10 10 -23 23 -25 28 -37 13 -37 -5 0 -26 23 -47 50 -21 28
-42 50 -46 50 -5 0 10 -23 32 -51 45 -58 47 -79 2 -31 -50 53 -83 116 -51 96
8 -4 8 0 0 15 -21 39 14 24 44 -19 15 -22 32 -40 38 -40 5 0 -7 20 -27 44
l-36 45 32 4 c19 3 11 4 -17 3 -49 -1 -50 -1 -52 -34 -1 -19 -4 -36 -7 -39
-10 -10 -36 19 -37 41 -1 18 -2 18 -8 -4 -5 -18 -15 -26 -36 -28 -17 -2 -36
-10 -42 -19 -21 -27 -30 15 -10 49 15 26 15 28 -3 38 -18 9 -20 43 -5 59 4 3
4 -6 1 -21 -7 -38 20 -44 51 -10 13 15 28 27 31 27 4 0 16 6 27 13 20 11 20
12 -3 18 l-23 7 23 11 c13 7 32 12 43 13 14 1 11 -3 -10 -13z m140 -2 c-3 -3
-11 0 -18 7 -9 10 -8 11 6 5 10 -3 15 -9 12 -12z m135 14 c0 -3 -4 -8 -10 -11
-5 -3 -10 -1 -10 4 0 6 5 11 10 11 6 0 10 -2 10 -4z m37 -2 c-3 -3 -12 -4 -19
-1 -8 3 -5 6 6 6 11 1 17 -2 13 -5z m391 -5 c-2 -6 3 -14 11 -17 9 -3 11 0 6
8 -6 9 -4 11 4 5 9 -5 9 -11 3 -17 -7 -7 -17 -5 -32 5 -20 14 -18 18 8 26 1 1
1 -4 0 -10z m566 -19 c-6 -6 -10 -3 -10 10 0 13 4 16 10 10 7 -7 7 -13 0 -20z
m-854 7 c29 -22 120 -174 120 -198 0 -11 -30 -4 -32 7 -2 12 -74 131 -105 172
-24 32 -14 44 17 19z m45 -7 c22 -25 42 -27 25 -2 -7 9 1 3 18 -14 26 -27 32
-30 44 -18 12 12 14 11 14 -10 0 -14 -4 -22 -8 -20 -4 3 -8 0 -8 -6 0 -7 6
-10 14 -7 8 3 20 -1 27 -9 6 -8 14 -12 17 -9 3 3 -3 15 -14 27 l-19 23 23 -19
c21 -18 28 -13 23 17 -1 5 3 6 9 2 6 -3 8 -10 5 -14 -2 -5 8 -14 23 -20 22
-10 25 -10 15 0 -19 20 -16 27 11 22 31 -6 44 -33 16 -33 -17 0 -18 -3 -9 -24
11 -24 23 -27 46 -13 9 6 11 3 7 -8 -4 -9 -13 -14 -20 -11 -8 3 -14 1 -14 -4
0 -5 -9 -8 -20 -7 -22 1 -25 8 -11 23 6 5 4 17 -6 29 -11 14 -17 16 -20 7 -4
-10 -9 -9 -20 5 -14 17 -14 17 -9 0 3 -11 2 -16 -4 -12 -18 11 -10 -12 10 -30
21 -19 27 -45 10 -45 -6 0 -16 11 -22 25 -6 14 -15 25 -20 25 -5 0 -1 -14 8
-31 12 -24 12 -30 2 -27 -7 3 -22 21 -32 41 -11 20 -23 37 -28 37 -4 0 3 -17
16 -38 16 -25 21 -44 16 -53 -11 -17 -11 -17 -50 61 -18 36 -48 86 -66 113
-34 47 -33 65 1 27z m419 -11 c-3 -5 1 -9 8 -10 10 0 10 -2 0 -6 -6 -2 -9 -10
-6 -15 4 -7 2 -8 -5 -4 -6 4 -9 12 -6 17 4 5 1 9 -4 9 -6 0 -11 10 -11 21 0
18 2 19 15 9 8 -7 12 -16 9 -21z m-34 12 c0 -5 -7 -14 -15 -21 -12 -10 -15 -9
-15 4 0 10 -4 15 -9 11 -5 -3 -12 -2 -15 3 -2 4 9 9 25 10 16 1 29 -2 29 -7z
m-1000 -36 c0 -5 -5 -3 -10 5 -5 8 -10 20 -10 25 0 6 5 3 10 -5 5 -8 10 -19
10 -25z m50 31 c0 -3 -4 -8 -10 -11 -5 -3 -10 -1 -10 4 0 6 5 11 10 11 6 0 10
-2 10 -4z m1070 -4 c0 -5 18 -17 40 -27 25 -11 40 -25 40 -36 0 -38 -99 20
-100 59 0 6 5 12 10 12 6 0 10 -4 10 -8z m134 -24 c-3 -4 -11 -5 -19 -1 -21 7
-19 12 4 10 11 0 18 -5 15 -9z m261 -38 c30 -27 64 -50 75 -50 17 0 18 -4 10
-26 -13 -33 -13 -37 2 -28 6 4 8 3 5 -4 -12 -18 -60 -5 -87 24 -46 50 -67 65
-83 58 -22 -8 -11 -25 11 -17 16 5 16 5 0 -13 -17 -18 -18 -18 -34 1 -9 12
-17 16 -20 9 -3 -6 -11 -20 -19 -30 -13 -17 -13 -15 -1 16 8 19 20 36 28 36 7
1 19 2 26 3 7 0 10 6 6 12 -5 9 13 59 23 59 1 0 28 -22 58 -50z m129 20 c-6
-6 -10 -3 -10 10 0 13 4 16 10 10 7 -7 7 -13 0 -20z m-714 -2 c0 -9 4 -8 10 2
8 12 10 9 10 -12 0 -16 5 -28 10 -28 6 0 10 5 10 10 0 6 7 10 15 10 8 0 15 -9
15 -20 0 -11 -4 -20 -10 -20 -5 0 -10 4 -10 8 0 12 -40 9 -40 -3 -1 -14 -40
37 -40 53 0 6 7 12 15 12 8 0 15 -6 15 -12z m150 -17 c0 -17 5 -33 12 -37 8
-5 6 -10 -8 -14 -10 -4 -22 -2 -26 4 -10 14 -10 60 -1 69 14 15 23 6 23 -22z
m40 8 c0 -5 -7 -9 -15 -9 -15 0 -20 12 -9 23 8 8 24 -1 24 -14z m103 6 c-3 -9
-8 -14 -10 -11 -3 3 -2 9 2 15 9 16 15 13 8 -4z m430 -20 c-3 -9 -8 -14 -10
-11 -3 3 -2 9 2 15 9 16 15 13 8 -4z m-748 -25 c-3 -5 -12 -10 -18 -10 -7 0
-6 4 3 10 19 12 23 12 15 0z m745 -14 c0 -2 -7 -7 -16 -10 -8 -3 -12 -2 -9 4
6 10 25 14 25 6z m-1685 -28 c5 4 5 1 1 -5 -10 -18 -23 -16 -30 3 -5 13 -4 14
7 6 8 -7 18 -8 22 -4z m1095 -18 c0 -24 -15 -27 -24 -4 -3 8 -2 12 4 9 6 -3
10 -1 10 4 0 6 2 11 5 11 3 0 5 -9 5 -20z m452 -33 c22 -44 23 -54 5 -49 -7 1
3 -9 21 -23 36 -30 40 -46 15 -66 -16 -13 -17 -12 -4 3 17 22 7 52 -15 44 -8
-3 -12 -2 -9 4 3 5 -4 14 -15 20 -28 15 -49 60 -43 93 7 33 17 27 45 -26z
m174 46 c-3 -4 -21 -8 -38 -9 -18 -2 -27 0 -21 4 16 10 68 14 59 5z m-1764
-21 c-4 -11 -1 -13 8 -7 9 5 11 4 6 -3 -4 -7 0 -12 11 -13 17 -1 17 -2 0 -6
-9 -2 -15 -9 -11 -14 3 -5 10 -6 16 -3 6 4 8 2 5 -4 -4 -5 -15 -9 -25 -7 -9 2
-19 4 -21 4 -3 1 0 6 6 12 9 9 8 17 -3 34 -12 18 -12 22 0 22 8 0 12 -6 8 -15z
m1715 -9 c-4 -3 -2 -12 5 -20 8 -10 8 -17 -1 -26 -10 -9 -12 -9 -9 3 2 8 -3
14 -9 13 -7 -2 -13 1 -13 5 0 9 21 32 29 32 2 0 1 -3 -2 -7z m41 -22 c9 -25 8
-30 -9 -34 -16 -4 -17 -2 -7 16 8 16 8 22 -1 25 -6 2 -9 8 -5 13 8 14 11 11
22 -20z m-195 -83 c-8 -15 -21 -8 -47 27 -39 50 -21 67 19 19 18 -22 31 -42
28 -46z m232 63 c3 -5 2 -12 -3 -15 -5 -3 -9 1 -9 9 0 17 3 19 12 6z m-114
-20 c-8 -5 -10 -14 -6 -21 6 -9 4 -11 -5 -5 -10 6 -12 4 -6 -10 7 -18 6 -18
-14 0 -11 10 -20 23 -20 29 0 6 5 4 10 -4 9 -13 12 -13 21 3 5 9 15 17 22 17
8 0 7 -3 -2 -9z m70 -41 c-13 -7 -21 -90 -9 -90 4 0 11 7 16 16 8 15 10 14 16
-2 4 -10 4 -16 1 -12 -4 3 -18 0 -33 -8 -30 -15 -40 -11 -23 9 6 8 9 34 7 61
-4 39 -2 47 10 42 8 -3 14 0 15 7 0 8 2 7 6 -2 3 -7 0 -17 -6 -21z m-1790 -3
c-10 -9 -11 -8 -5 6 3 10 9 15 12 12 3 -3 0 -11 -7 -18z m496 -40 c9 4 19 -1
25 -10 5 -10 15 -17 23 -17 8 0 17 -5 21 -12 5 -7 0 -9 -14 -6 -19 5 -20 3
-12 -12 14 -26 12 -40 -5 -40 -9 0 -15 9 -15 23 0 18 -6 22 -34 24 -29 1 -35
-3 -40 -23 -4 -13 -11 -24 -17 -24 -6 0 -7 -6 -3 -12 5 -10 4 -10 -5 -2 -10 9
-10 17 -1 34 6 11 12 34 12 51 1 24 4 27 15 17 11 -9 11 -13 1 -19 -8 -6 4 -9
31 -9 38 0 42 2 31 15 -10 12 -15 13 -21 4 -5 -9 -15 -3 -33 17 -33 38 -33 50
0 19 15 -14 32 -21 41 -18z m-480 6 c0 -9 -4 -10 -14 -2 -7 6 -13 12 -13 14 0
1 6 2 13 2 8 0 14 -6 14 -14z m1437 -43 c3 -19 8 -53 11 -75 6 -34 0 -53 -40
-134 -26 -53 -51 -120 -57 -155 -13 -71 -22 -86 -37 -58 -8 15 -7 29 3 54 7
18 16 56 20 83 3 28 19 102 35 165 24 94 30 108 31 75 4 -72 -1 -99 -26 -155
l-24 -55 25 30 c42 50 59 118 46 181 -5 30 -8 61 -4 69 7 21 11 16 17 -25z
m121 12 c-3 -3 -11 0 -18 7 -9 10 -8 11 6 5 10 -3 15 -9 12 -12z m-68 -13
c-15 -9 -16 -13 -5 -27 12 -15 11 -16 -5 -3 -13 10 -15 17 -6 27 6 8 17 14 23
14 6 0 3 -5 -7 -11z m143 7 c0 -2 -8 -10 -17 -17 -16 -13 -17 -12 -4 4 13 16
21 21 21 13z m-1040 -52 c0 -14 -6 -24 -14 -24 -10 0 -14 10 -14 29 1 36 28
31 28 -5z m999 17 c10 -7 7 -9 -12 -8 -14 1 -23 5 -20 10 6 9 15 9 32 -2z
m-1624 -11 c3 -5 1 -10 -4 -10 -6 0 -11 5 -11 10 0 6 2 10 4 10 3 0 8 -4 11
-10z m1734 -4 c17 -20 -13 -43 -34 -26 -8 7 -15 19 -15 26 0 18 34 18 49 0z
m-59 -16 c0 -5 -5 -10 -11 -10 -5 0 -7 5 -4 10 3 6 8 10 11 10 2 0 4 -4 4 -10z
m-1674 -26 c1 -9 0 -13 -4 -10 -3 4 -7 14 -8 22 -1 9 0 13 4 10 3 -4 7 -14 8
-22z m507 9 c-7 -2 -21 -2 -30 0 -10 3 -4 5 12 5 17 0 24 -2 18 -5z m70 0 c-7
-2 -21 -2 -30 0 -10 3 -4 5 12 5 17 0 24 -2 18 -5z m1158 -22 c-6 -10 -7 -21
-4 -25 3 -3 1 -6 -5 -6 -7 0 -12 3 -12 6 0 9 20 44 26 44 2 0 0 -8 -5 -19z
m96 -28 c-3 -10 -5 -2 -5 17 0 19 2 27 5 18 2 -10 2 -26 0 -35z m-102 -23 c3
-6 -1 -7 -9 -4 -18 7 -21 14 -7 14 6 0 13 -4 16 -10z m129 -18 c3 -5 -1 -9 -9
-9 -8 0 -12 4 -9 9 3 4 7 8 9 8 2 0 6 -4 9 -8z m5 -62 c0 -10 -3 -8 -9 5 -12
27 -12 43 0 25 5 -8 9 -22 9 -30z m-32 8 c-3 -8 -6 -5 -6 6 -1 11 2 17 5 13 3
-3 4 -12 1 -19z m-1817 -23 c0 -8 -4 -15 -10 -15 -5 0 -7 7 -4 15 4 8 8 15 10
15 2 0 4 -7 4 -15z m1624 -41 c-2 -20 -13 -47 -24 -61 -11 -14 -20 -34 -20
-44 0 -41 -55 -111 -74 -92 -7 7 25 63 36 63 4 0 8 6 8 13 0 7 13 33 28 58 16
24 29 49 30 54 4 20 13 45 17 45 2 0 2 -16 -1 -36z m-1562 2 c7 4 8 2 4 -4
-12 -20 -26 -13 -25 11 1 17 2 18 6 4 2 -9 9 -14 15 -11z m1653 14 c3 -5 1
-10 -4 -10 -6 0 -11 5 -11 10 0 6 2 10 4 10 3 0 8 -4 11 -10z m-1714 -27 c-12
-20 -14 -14 -5 12 4 9 9 14 11 11 3 -2 0 -13 -6 -23z m1690 -88 c-6 -17 -11
-39 -11 -47 0 -9 -6 -19 -12 -21 -7 -3 -3 -6 10 -6 23 -1 32 -21 8 -21 -8 0
-13 -7 -12 -16 0 -9 -5 -19 -13 -22 -9 -3 -12 0 -8 10 3 9 -1 27 -8 41 -11 22
-11 30 5 60 10 19 22 52 26 73 l7 39 10 -29 c7 -20 6 -39 -2 -61z m-1646 65
c3 -5 1 -10 -4 -10 -6 0 -11 5 -11 10 0 6 2 10 4 10 3 0 8 -4 11 -10z m-5 -31
c0 8 3 12 6 8 3 -3 3 -11 -2 -18 -5 -9 -11 -7 -21 6 -7 11 -13 24 -13 29 1 6
7 0 15 -14 8 -14 14 -19 15 -11z m27 -31 c-3 -7 -5 -2 -5 12 0 14 2 19 5 13 2
-7 2 -19 0 -25z m38 21 c11 -17 -1 -21 -15 -4 -8 9 -8 15 -2 15 6 0 14 -5 17
-11z m222 -16 c0 -6 -4 -10 -8 -7 -4 2 -10 0 -14 -6 -3 -5 -1 -10 4 -10 6 0
11 -4 11 -9 0 -5 -8 -8 -17 -6 -10 2 -20 4 -22 4 -2 1 4 11 15 23 18 20 18 21
1 15 -10 -4 -16 -3 -12 2 8 14 42 9 42 -6z m1455 -37 c7 4 8 2 4 -4 -4 -6 -14
-8 -23 -5 -10 4 -14 2 -9 -5 3 -6 3 -13 -1 -15 -5 -3 -9 8 -9 23 -1 26 0 27
13 14 8 -8 19 -11 25 -8z m-1738 -2 c3 -8 2 -12 -4 -9 -6 3 -10 10 -10 16 0
14 7 11 14 -7z m151 -14 c-3 -5 -12 -10 -18 -10 -7 0 -6 4 3 10 19 12 23 12
15 0z m95 -10 c0 -5 -2 -10 -4 -10 -3 0 -8 5 -11 10 -3 6 -1 10 4 10 6 0 11
-4 11 -10z m-43 -6 c-3 -3 -12 -4 -19 -1 -8 3 -5 6 6 6 11 1 17 -2 13 -5z
m-13 -26 c-3 -4 -12 -4 -21 -1 -12 5 -14 3 -8 -7 5 -9 4 -11 -4 -6 -16 10 -4
25 19 23 10 -1 17 -5 14 -9z m1374 -5 c2 -9 -7 -13 -27 -13 -30 0 -39 9 -24
24 11 10 46 3 51 -11z m-1486 -17 c7 4 8 2 4 -5 -9 -13 -26 -5 -25 12 0 9 2 8
6 -1 2 -6 10 -9 15 -6z m1433 -19 c8 -8 7 -16 -4 -28 -27 -30 -38 -44 -44 -59
-10 -25 -8 22 2 58 8 25 7 32 -5 32 -8 0 -14 5 -14 10 0 12 49 2 65 -13z
m-1151 -3 c3 -8 2 -12 -4 -9 -6 3 -10 2 -10 -2 0 -5 -9 -9 -20 -9 -11 0 -20 4
-20 8 0 4 9 8 20 8 11 0 20 5 20 10 0 15 7 12 14 -6z m90 8 c2 -4 -4 -8 -14
-8 -10 0 -16 4 -14 8 3 4 9 8 14 8 5 0 11 -4 14 -8z m1236 -2 c0 -5 -5 -10
-11 -10 -5 0 -7 5 -4 10 3 6 8 10 11 10 2 0 4 -4 4 -10z m30 6 c0 -3 -4 -8
-10 -11 -5 -3 -10 -1 -10 4 0 6 5 11 10 11 6 0 10 -2 10 -4z m-1322 -26 c-7
-11 -19 -20 -27 -20 -9 0 -6 7 9 20 13 11 25 20 27 20 2 0 -2 -9 -9 -20z
m-104 -2 c-3 -5 4 -12 15 -16 18 -6 17 -9 -14 -18 -20 -6 -32 -7 -28 -1 3 5
-3 7 -13 3 -25 -8 -53 9 -29 17 11 5 14 3 9 -5 -5 -8 -2 -9 10 -5 10 4 22 7
27 7 5 0 9 5 9 11 0 6 -7 8 -16 5 -8 -3 -12 -2 -9 3 3 6 14 9 25 8 10 -1 16
-5 14 -9z m-149 -7 c3 -5 2 -12 -3 -15 -5 -3 -9 1 -9 9 0 17 3 19 12 6z m1501
-18 c3 -17 -1 -20 -16 -16 -16 4 -19 2 -14 -13 4 -11 4 -16 0 -12 -4 3 -9 14
-10 23 -1 9 -9 21 -17 26 -9 5 -10 9 -2 9 6 0 15 -4 18 -10 10 -16 25 -11 18
6 -4 11 -2 15 7 12 7 -2 15 -13 16 -25z m-1529 -5 c2 -16 0 -19 -6 -9 -5 7
-15 10 -22 7 -8 -4 -5 0 5 8 11 9 20 16 21 16 0 0 2 -10 2 -22z m273 -15 c0
-3 -7 -3 -15 1 -8 3 -15 1 -15 -5 0 -6 -5 -7 -11 -3 -8 4 -7 9 2 14 12 8 39 3
39 -7z m1060 1 c0 -8 -19 -13 -24 -6 -3 5 1 9 9 9 8 0 15 -2 15 -3z m-1132
-13 c2 -1 0 -6 -3 -11 -5 -8 -11 -8 -19 -1 -9 7 -20 6 -37 -5 l-24 -16 23 20
c18 17 32 20 60 13z m552 5 c0 -2 -8 -10 -17 -17 -16 -13 -17 -12 -4 4 13 16
21 21 21 13z m463 -31 c4 3 5 2 2 -2 -3 -3 1 -13 8 -21 8 -10 8 -13 1 -9 -13
7 -24 -13 -24 -43 0 -9 -7 -24 -17 -31 -15 -13 -15 -12 -4 9 7 13 10 30 7 38
-3 8 -1 14 4 14 18 0 11 33 -12 59 l-23 26 26 -23 c14 -12 29 -20 32 -17z
m303 10 c-3 -8 0 -15 7 -15 7 -1 3 -6 -9 -13 -12 -7 -19 -17 -17 -24 2 -6 0
-13 -4 -16 -5 -3 -9 10 -9 29 0 22 4 34 13 34 7 0 13 5 13 10 0 6 3 10 6 10 3
0 4 -7 0 -15z m-1090 -7 c4 -6 3 -8 -4 -4 -6 3 -13 2 -17 -4 -3 -5 -11 -10
-18 -10 -6 0 -2 7 9 15 23 18 21 17 30 3z m-264 -7 c-8 -4 -12 -12 -10 -16 1
-5 -5 -9 -15 -11 -18 -2 -18 -2 -1 17 9 10 22 19 28 19 6 0 5 -4 -2 -9z m1234
-6 c-3 -23 -12 -26 -13 -5 -1 11 2 20 7 20 4 0 7 -7 6 -15z m-1021 -17 c5 4 5
1 1 -5 -4 -7 -2 -13 3 -13 6 0 11 5 11 12 0 6 3 8 7 5 3 -4 13 -1 21 6 10 7
13 8 9 1 -6 -11 14 -37 24 -31 2 1 -3 -5 -11 -14 -8 -9 -16 -12 -18 -8 -2 5
-8 9 -13 9 -6 0 -7 -5 -3 -12 4 -7 3 -8 -5 -4 -15 10 -3 29 15 22 16 -6 19 10
4 19 -5 3 -21 -5 -35 -19 -13 -14 -27 -20 -30 -15 -4 5 -1 9 5 9 7 0 10 6 7
13 -2 6 -9 11 -14 10 -5 -1 -10 5 -10 12 0 10 4 12 12 5 7 -5 16 -6 20 -2z
m325 8 c0 -2 -8 -10 -17 -17 -16 -13 -17 -12 -4 4 13 16 21 21 21 13z m-692
-31 c-3 -3 -9 2 -12 12 -6 14 -5 15 5 6 7 -7 10 -15 7 -18z m54 3 c-9 -9 -7
-14 6 -24 9 -7 15 -14 12 -17 -3 -2 -16 7 -30 21 -14 13 -20 22 -13 18 6 -3
14 -2 18 4 3 5 9 10 13 10 3 0 1 -5 -6 -12z m1308 2 c0 -5 -2 -10 -4 -10 -3 0
-8 5 -11 10 -3 6 -1 10 4 10 6 0 11 -4 11 -10z m100 -4 c0 -2 -7 -6 -15 -10
-8 -3 -15 -1 -15 4 0 6 7 10 15 10 8 0 15 -2 15 -4z m-460 -17 c0 10 3 11 14
2 14 -12 16 -35 3 -47 -3 -4 -5 3 -2 15 4 22 -5 27 -21 11 -6 -6 -10 -2 -11
12 -2 18 0 20 7 8 8 -12 10 -12 10 -1z m-372 -16 c-9 -10 -13 -25 -11 -33 4
-13 3 -13 -6 0 -7 10 -6 19 6 32 21 23 31 23 11 1z m792 7 c0 -5 -2 -10 -4
-10 -3 0 -8 5 -11 10 -3 6 -1 10 4 10 6 0 11 -4 11 -10z m-1200 -10 c0 -5 -7
-10 -16 -10 -8 0 -13 -3 -10 -8 2 -4 -11 -8 -29 -8 -19 0 -31 4 -28 8 3 5 10
7 17 5 7 -3 23 1 37 9 30 16 29 16 29 4z m-140 -30 c0 -5 -4 -10 -10 -10 -5 0
-10 5 -10 10 0 6 5 10 10 10 6 0 10 -4 10 -10z m211 -3 c-6 -8 -7 -18 -3 -22
4 -5 1 -5 -6 -1 -10 6 -10 11 -1 22 6 8 14 14 16 14 3 0 0 -6 -6 -13z m1092
-1 c4 -10 1 -13 -8 -9 -8 3 -12 9 -9 14 7 12 11 11 17 -5z m-559 -25 c3 -5 -2
-15 -12 -22 -15 -12 -16 -12 -5 2 7 9 10 19 6 22 -3 4 -4 7 0 7 3 0 8 -4 11
-9z m576 -11 c0 -5 -5 -10 -11 -10 -5 0 -7 5 -4 10 3 6 8 10 11 10 2 0 4 -4 4
-10z m-1095 -10 c3 -5 1 -10 -4 -10 -6 0 -11 5 -11 10 0 6 2 10 4 10 3 0 8 -4
11 -10z m305 6 c0 -2 -7 -6 -15 -10 -8 -3 -15 -1 -15 4 0 6 7 10 15 10 8 0 15
-2 15 -4z m-72 -23 c-7 -9 -7 -13 1 -13 7 0 9 -5 5 -11 -4 -8 -9 -7 -15 2 -4
7 -6 16 -3 20 2 4 -2 9 -8 12 -7 3 -3 4 9 4 17 -1 19 -4 11 -14z m252 13 c0
-2 -7 -9 -15 -16 -13 -11 -14 -10 -9 4 5 14 24 23 24 12z m-40 -10 c0 -2 -8
-10 -17 -17 -16 -13 -17 -12 -4 4 13 16 21 21 21 13z m-444 -29 c1 -7 -8 -13
-20 -14 -11 -1 -15 1 -8 4 6 3 12 12 12 21 0 17 13 8 16 -11z m171 1 c-3 -8
-6 -5 -6 6 -1 11 2 17 5 13 3 -3 4 -12 1 -19z m-304 -3 c-3 -9 -8 -14 -10 -11
-3 3 -2 9 2 15 9 16 15 13 8 -4z m85 -10 c-3 -3 -9 2 -12 12 -6 14 -5 15 5 6
7 -7 10 -15 7 -18z m997 7 c-3 -3 -11 0 -18 7 -9 10 -8 11 6 5 10 -3 15 -9 12
-12z m-405 -2 c0 -5 -2 -10 -4 -10 -3 0 -8 5 -11 10 -3 6 -1 10 4 10 6 0 11
-4 11 -10z m295 -20 c-1 -17 -5 -33 -8 -36 -4 -5 -2 51 2 64 5 12 8 -4 6 -28z
m-174 -3 c-10 -9 -11 -8 -5 6 3 10 9 15 12 12 3 -3 0 -11 -7 -18z m-575 -2
c-3 -9 0 -15 9 -15 7 0 16 -4 19 -9 8 -12 -27 -9 -36 3 -6 9 0 36 9 36 3 0 3
-7 -1 -15z m330 -7 c4 -7 3 -10 -1 -5 -5 4 -16 0 -26 -9 -13 -12 -19 -12 -25
-3 -4 7 -3 10 3 6 6 -4 16 0 23 8 15 18 17 18 26 3z m-204 -30 c-8 -8 -9 -4
-5 13 4 13 8 18 11 10 2 -7 -1 -18 -6 -23z m458 -15 c-4 -42 -5 -44 -8 -15 -3
30 2 62 10 62 2 0 1 -21 -2 -47z m-23 0 c-3 -10 -5 -4 -5 12 0 17 2 24 5 18 2
-7 2 -21 0 -30z m-615 -5 c-9 -9 -12 -9 -12 2 0 11 -3 11 -12 2 -7 -7 -17 -12
-22 -12 -6 0 0 9 14 20 27 20 54 10 32 -12z m218 11 c0 8 3 12 6 8 10 -10 -6
-26 -21 -21 -8 4 -12 11 -9 16 4 6 10 5 15 -3 7 -12 9 -12 9 0z m607 -4 c0 -8
-4 -12 -9 -9 -5 3 -6 10 -3 15 9 13 12 11 12 -6z m-646 -42 c-12 -20 -14 -14
-5 12 4 9 9 14 11 11 3 -2 0 -13 -6 -23z m329 6 c0 -5 -4 -9 -10 -9 -5 0 -10
7 -10 16 0 8 5 12 10 9 6 -3 10 -10 10 -16z m-278 -51 c4 1 5 -5 2 -12 -4 -12
-10 -10 -30 7 -30 26 -31 31 -1 15 12 -7 25 -11 29 -10z m78 -28 c0 -5 -4 -10
-9 -10 -6 0 -13 5 -16 10 -3 6 1 10 9 10 9 0 16 -4 16 -10z m230 2 c0 -5 -7
-9 -15 -9 -8 0 -12 4 -9 9 3 4 9 8 15 8 5 0 9 -4 9 -8z"/>
<path d="M1645 2130 c3 -5 8 -10 11 -10 2 0 4 5 4 10 0 6 -5 10 -11 10 -5 0
-7 -4 -4 -10z"/>
<path d="M1406 1987 c3 -10 9 -15 12 -12 3 3 0 11 -7 18 -10 9 -11 8 -5 -6z"/>
<path d="M1167 2045 c-4 -8 -3 -16 1 -19 4 -3 9 4 9 15 2 23 -3 25 -10 4z"/>
<path d="M1016 1811 c5 -11 3 -13 -9 -8 -9 3 -19 1 -23 -5 -4 -7 -3 -8 4 -4 7
4 12 3 12 -2 0 -13 28 -23 34 -13 3 4 -2 17 -10 27 -9 10 -12 13 -8 5z"/>
<path d="M788 1793 c12 -2 30 -2 40 0 9 3 -1 5 -23 4 -22 0 -30 -2 -17 -4z"/>
<path d="M735 1770 c-10 -11 -16 -22 -14 -24 2 -2 12 7 22 20 22 29 17 32 -8
4z"/>
<path d="M875 1781 c28 -6 29 -7 10 -19 -11 -6 -15 -12 -8 -12 6 0 15 5 18 10
4 6 12 7 18 3 7 -4 6 0 -2 10 -7 9 -25 16 -40 16 -25 -1 -25 -2 4 -8z"/>
<path d="M935 1723 c11 -18 22 -33 26 -33 4 0 9 -9 12 -20 4 -16 11 -19 29
-15 17 4 27 0 37 -17 8 -13 21 -33 29 -45 9 -14 10 -23 4 -23 -6 0 -21 10 -33
23 -16 16 -20 17 -16 5 13 -37 -25 -3 -78 69 -30 42 -55 72 -55 68 0 -10 69
-111 85 -125 7 -6 12 -17 9 -24 -4 -11 11 -15 56 -18 8 -1 17 -5 20 -9 3 -5
17 -10 30 -11 14 -2 28 -7 31 -12 4 -4 18 -1 32 8 21 14 25 15 30 2 4 -10 0
-12 -14 -9 -10 3 -19 0 -19 -6 0 -11 20 -15 49 -12 7 2 10 -2 6 -8 -4 -7 0 -8
11 -4 11 4 15 2 11 -4 -4 -6 2 -13 13 -16 35 -9 31 6 -7 28 -23 12 -39 29 -41
43 -2 12 -8 22 -13 22 -6 0 -7 5 -4 10 3 6 -1 10 -9 10 -8 0 -20 8 -25 18 -6
9 -11 12 -11 6 0 -6 9 -19 20 -29 23 -21 26 -35 8 -35 -17 1 -93 110 -77 110
7 0 22 -8 33 -17 19 -16 19 -15 -1 6 -13 15 -27 21 -38 18 -13 -6 -10 -16 25
-67 39 -57 42 -74 8 -47 -23 18 -68 89 -62 99 3 4 -7 8 -22 8 -19 0 -39 13
-68 43 -37 38 -38 39 -21 10z"/>
<path d="M850 1720 c0 -5 5 -10 11 -10 5 0 7 5 4 10 -3 6 -8 10 -11 10 -2 0
-4 -4 -4 -10z"/>
<path d="M870 1691 c0 -5 5 -13 10 -16 6 -3 10 -2 10 4 0 5 -4 13 -10 16 -5 3
-10 2 -10 -4z"/>
<path d="M1836 1683 c-3 -3 -6 -22 -6 -42 0 -24 -3 -31 -9 -23 -7 11 -9 10
-14 -3 -4 -9 -3 -13 3 -10 10 6 29 -24 35 -56 5 -23 -13 -25 -43 -3 -25 17
-23 19 -42 -54 -11 -44 -10 -226 2 -214 3 4 13 46 21 93 11 71 20 94 47 128
18 22 37 41 41 41 4 0 11 10 14 21 6 17 9 19 17 8 8 -11 8 -10 4 4 -3 10 -1
28 5 40 9 16 9 22 0 25 -6 2 -8 9 -5 14 4 6 2 8 -4 4 -6 -3 -13 -2 -17 4 -9
15 -41 30 -49 23z"/>
<path d="M657 1644 c6 -16 19 -18 27 -5 3 5 -3 11 -13 14 -14 3 -18 1 -14 -9z"/>
<path d="M995 1630 c3 -5 11 -10 16 -10 6 0 7 5 4 10 -3 6 -11 10 -16 10 -6 0
-7 -4 -4 -10z"/>
<path d="M1508 1564 c3 -59 1 -83 -8 -89 -9 -6 -11 -4 -5 5 5 9 4 11 -4 6 -15
-9 1 -32 27 -38 14 -4 17 3 19 41 2 71 -8 156 -17 141 -6 -10 -9 -9 -12 1 -3
8 -3 -23 0 -67z"/>
<path d="M717 1623 c-4 -6 0 -13 8 -17 8 -3 17 0 21 6 4 6 3 8 -4 4 -5 -3 -12
-1 -14 6 -3 8 -6 9 -11 1z"/>
<path d="M1371 1614 c0 -11 3 -14 6 -6 3 7 2 16 -1 19 -3 4 -6 -2 -5 -13z"/>
<path d="M1781 1614 c0 -12 7 -28 17 -35 15 -12 16 -12 6 1 -7 8 -14 24 -17
35 -4 19 -5 19 -6 -1z"/>
<path d="M620 1569 c-12 -9 -12 -10 4 -5 10 4 24 2 30 -3 6 -6 24 -14 39 -20
22 -9 27 -8 27 5 0 11 -6 13 -21 9 -16 -5 -19 -4 -14 5 5 8 4 11 -3 6 -6 -3
-13 -2 -17 4 -8 13 -26 13 -45 -1z"/>
<path d="M741 1530 c-9 -5 -7 -9 8 -13 12 -3 23 -2 26 3 7 11 -19 20 -34 10z"/>
<path d="M785 1511 c-3 -6 3 -15 14 -21 12 -6 22 -6 26 -1 3 6 -3 15 -14 21
-12 6 -22 6 -26 1z"/>
<path d="M540 1500 c0 -5 4 -10 9 -10 6 0 13 5 16 10 3 6 -1 10 -9 10 -9 0
-16 -4 -16 -10z"/>
<path d="M595 1490 c-18 -8 -18 -9 5 -10 66 -2 85 -5 91 -13 4 -6 14 -5 24 0
15 9 13 11 -14 16 -17 4 -38 4 -46 1 -8 -4 -15 -1 -15 5 0 13 -17 13 -45 1z"/>
<path d="M1274 1479 c-4 -7 -1 -10 7 -7 8 3 20 -1 27 -9 8 -7 18 -10 24 -7 6
4 1 12 -13 20 -30 17 -36 17 -45 3z"/>
<path d="M1365 1440 c-3 -4 4 -10 15 -13 11 -3 22 -2 25 3 3 4 -4 10 -15 13
-11 3 -22 2 -25 -3z"/>
<path d="M1279 1373 c-23 -13 -22 -14 16 -8 31 4 37 3 25 -5 -13 -10 -13 -11
0 -7 8 2 23 0 34 -5 10 -6 22 -6 27 -1 5 5 -9 16 -34 25 -38 14 -46 14 -68 1z"/>
<path d="M1406 1342 c-3 -5 6 -12 19 -15 14 -2 28 0 31 4 3 5 1 9 -5 9 -5 0
-16 3 -24 6 -8 3 -18 1 -21 -4z"/>
<path d="M796 1315 c-11 -8 -16 -15 -10 -15 5 0 18 7 28 15 11 8 16 15 10 15
-5 0 -18 -7 -28 -15z"/>
<path d="M860 1323 c8 -3 19 -13 24 -21 7 -12 10 -12 17 -1 6 9 9 10 9 2 0 -6
-16 -21 -35 -33 -20 -12 -43 -29 -52 -38 -9 -10 -18 -16 -20 -14 -2 1 -8 2
-15 2 -6 0 -4 -8 6 -19 17 -19 71 -18 59 2 -4 6 3 8 21 3 14 -3 26 -2 26 3 0
5 10 9 23 9 12 -1 35 -1 51 0 23 2 27 5 18 14 -15 15 -16 38 -2 38 6 0 10 -6
10 -14 0 -15 30 -26 70 -26 19 0 21 3 11 9 -9 6 18 8 70 5 67 -4 80 -3 65 7
-12 7 -51 10 -112 7 -51 -2 -88 0 -81 4 9 6 9 8 -1 8 -8 0 -44 14 -82 30 -38
17 -74 30 -82 29 -9 0 -9 -2 2 -6z m74 -59 c-4 -17 -2 -30 7 -36 11 -8 10 -8
-4 -4 -10 3 -23 6 -27 6 -5 0 -4 14 1 30 13 37 32 40 23 4z m-40 -16 c-10 -20
-19 -28 -22 -20 -3 10 -6 10 -16 -1 -6 -8 -22 -18 -36 -22 l-25 -7 25 18 c14
10 28 22 31 26 3 5 10 8 15 6 5 -2 10 1 11 6 1 8 22 25 31 26 1 0 -5 -15 -14
-32z m76 18 c0 -15 -18 -31 -26 -23 -7 7 7 37 17 37 5 0 9 -6 9 -14z"/>
<path d="M1470 1319 c-13 -9 -12 -10 2 -5 10 3 20 1 23 -5 4 -5 11 -6 17 -3 6
4 5 10 -3 15 -18 11 -21 11 -39 -2z"/>
<path d="M2014 1316 c-11 -28 1 -51 25 -51 32 0 49 28 32 49 -17 20 -50 21
-57 2z"/>
<path d="M850 1299 c0 -5 -4 -8 -9 -5 -13 8 -42 -4 -36 -14 7 -11 65 9 65 21
0 5 -4 9 -10 9 -5 0 -10 -5 -10 -11z"/>
<path d="M1530 1299 c0 -5 5 -7 10 -4 6 3 10 8 10 11 0 2 -4 4 -10 4 -5 0 -10
-5 -10 -11z"/>
<path d="M719 1274 c-25 -25 -28 -25 -51 -10 -22 14 -26 14 -44 0 -18 -15 -18
-15 2 -5 17 8 26 6 44 -9 28 -25 40 -25 41 -2 0 10 3 12 6 5 2 -7 10 -13 16
-13 8 0 7 4 -1 12 -9 9 -8 16 5 30 25 27 11 22 -18 -8z"/>
<path d="M1560 1290 c0 -5 5 -10 10 -10 6 0 10 5 10 10 0 6 -4 10 -10 10 -5 0
-10 -4 -10 -10z"/>
<path d="M1590 1280 c0 -5 3 -9 8 -8 4 1 17 -3 29 -10 17 -10 23 -9 29 0 4 7
4 10 -1 6 -4 -4 -17 -1 -29 7 -24 17 -36 19 -36 5z"/>
<path d="M760 1270 c-8 -5 -11 -13 -6 -17 5 -4 11 -3 13 4 2 7 11 9 20 6 11
-4 14 -2 9 5 -9 14 -16 15 -36 2z"/>
<path d="M1297 1260 c12 -5 34 -5 50 0 24 7 21 8 -22 9 -38 0 -45 -2 -28 -9z"/>
<path d="M1248 1253 c7 -3 16 -2 19 1 4 3 -2 6 -13 5 -11 0 -14 -3 -6 -6z"/>
<path d="M1386 1248 c7 -12 94 -10 94 2 0 6 -22 9 -49 8 -27 -1 -47 -6 -45
-10z"/>
<path d="M568 1243 c6 -2 18 -2 25 0 6 3 1 5 -13 5 -14 0 -19 -2 -12 -5z"/>
<path d="M1530 1240 c20 -13 40 -13 40 0 0 6 -12 10 -27 10 -22 0 -25 -2 -13
-10z"/>
<path d="M1762 1225 c0 -16 2 -22 5 -12 2 9 2 23 0 30 -3 6 -5 -1 -5 -18z"/>
<path d="M625 1230 c28 -12 47 -12 40 0 -3 6 -18 10 -33 9 -24 0 -25 -1 -7 -9z"/>
<path d="M1600 1230 c20 -13 40 -13 40 0 0 6 -12 10 -27 10 -22 0 -25 -2 -13
-10z"/>
<path d="M731 1191 c-7 -5 -9 -11 -4 -14 5 -3 15 -2 22 2 7 5 9 11 4 14 -5 3
-15 2 -22 -2z"/>
<path d="M1503 1193 c20 -2 54 -2 75 0 20 2 3 4 -38 4 -41 0 -58 -2 -37 -4z"/>
<path d="M1327 1183 c18 -2 50 -2 70 0 21 2 7 4 -32 4 -38 0 -55 -2 -38 -4z"/>
<path d="M1137 1153 c-53 -24 -62 -25 -90 -13 -47 19 -107 24 -120 10 -9 -9
-5 -10 17 -4 25 6 28 4 23 -10 -4 -9 -2 -16 3 -16 6 0 10 7 10 15 0 8 7 15 16
15 8 0 12 -5 9 -11 -4 -6 -1 -9 6 -8 8 2 25 -3 38 -10 20 -11 29 -9 75 14 28
16 77 31 111 35 l60 7 -50 1 c-35 1 -68 -6 -108 -25z"/>
<path d="M1590 1170 c0 -5 9 -10 20 -10 11 0 20 -5 20 -12 0 -6 3 -8 7 -4 5 4
-1 14 -11 22 -23 16 -36 18 -36 4z"/>
<path d="M1525 1161 c-18 -4 -25 -9 -19 -14 16 -9 75 3 68 14 -3 5 -8 8 -12 8
-4 -1 -20 -4 -37 -8z"/>
<path d="M620 1150 c8 -5 24 -10 35 -10 17 0 17 2 5 10 -8 5 -24 10 -35 10
-17 0 -17 -2 -5 -10z"/>
<path d="M1464 1139 c-3 -6 -13 -8 -23 -4 -11 4 -13 3 -6 -4 6 -6 22 -7 40 -3
23 6 25 10 12 15 -9 3 -19 2 -23 -4z"/>
<path d="M1600 1139 c0 -5 5 -7 10 -4 6 3 10 8 10 11 0 2 -4 4 -10 4 -5 0 -10
-5 -10 -11z"/>
<path d="M893 1132 c-7 -4 -9 -13 -4 -21 6 -9 10 -7 14 8 3 12 4 21 4 21 -1 0
-7 -4 -14 -8z"/>
<path d="M917 1101 c-12 -24 -13 -31 -2 -31 7 0 15 12 18 28 7 38 2 39 -16 3z"/>
<path d="M1390 1119 c0 -6 -9 -8 -22 -4 -17 5 -20 4 -12 -4 6 -7 23 -9 43 -5
23 5 29 9 19 15 -18 12 -28 11 -28 -2z"/>
<path d="M1538 1123 c-10 -3 -18 -9 -18 -14 0 -6 -4 -7 -10 -4 -5 3 -10 1 -10
-4 0 -14 1 -14 40 3 32 13 31 26 -2 19z"/>
<path d="M1620 1111 c-5 -9 -12 -15 -16 -13 -4 1 -9 -5 -10 -14 -2 -13 3 -11
24 7 15 13 31 26 35 30 4 3 1 6 -8 6 -9 0 -20 -7 -25 -16z"/>
<path d="M996 1105 c-3 -8 -1 -15 4 -15 6 0 10 7 10 15 0 8 -2 15 -4 15 -2 0
-6 -7 -10 -15z"/>
<path d="M1748 1113 c7 -3 16 -2 19 1 4 3 -2 6 -13 5 -11 0 -14 -3 -6 -6z"/>
<path d="M1315 1100 c3 -5 10 -10 16 -10 5 0 9 5 9 10 0 6 -7 10 -16 10 -8 0
-12 -4 -9 -10z"/>
<path d="M945 1090 c-3 -5 1 -10 9 -10 9 0 16 5 16 10 0 6 -4 10 -9 10 -6 0
-13 -4 -16 -10z"/>
<path d="M1270 1090 c-8 -5 -19 -6 -25 -3 -5 3 -5 0 2 -7 8 -9 19 -10 39 -3
21 7 24 11 13 15 -9 3 -22 2 -29 -2z"/>
<path d="M1470 1089 c0 -5 -5 -7 -12 -3 -7 4 -8 3 -4 -4 4 -6 13 -9 21 -5 17
6 20 23 5 23 -5 0 -10 -5 -10 -11z"/>
<path d="M1716 1082 c-7 -12 4 -52 15 -52 5 0 6 12 3 28 -8 33 -10 36 -18 24z"/>
<path d="M1193 1072 c-13 -2 -23 -8 -23 -13 0 -6 -9 -7 -20 -4 -12 4 -20 2
-20 -5 0 -7 -8 -9 -22 -5 -18 6 -20 4 -12 -5 9 -8 26 -7 75 5 35 9 65 18 67
20 6 6 -24 11 -45 7z"/>
<path d="M1417 1065 c-8 -8 -17 -11 -21 -8 -3 4 -6 1 -6 -6 0 -8 -6 -11 -16
-7 -10 4 -13 2 -8 -6 5 -7 2 -9 -8 -6 -17 7 -45 -7 -31 -15 11 -7 103 33 103
45 0 5 5 6 12 2 7 -4 8 -3 4 4 -9 15 -12 15 -29 -3z"/>
<path d="M1670 1060 c-9 -17 -9 -25 1 -34 9 -8 11 -7 6 5 -3 9 0 22 6 28 6 6
8 13 5 17 -4 3 -12 -4 -18 -16z"/>
<path d="M1612 1045 c4 -4 0 -13 -9 -20 -9 -7 -12 -15 -7 -18 6 -3 15 3 22 13
9 15 9 21 -1 26 -6 4 -9 4 -5 -1z"/>
<path d="M1055 1030 c3 -5 13 -10 21 -10 8 0 12 5 9 10 -3 6 -13 10 -21 10 -8
0 -12 -4 -9 -10z"/>
<path d="M1735 1011 c-3 -5 -1 -12 5 -16 6 -4 7 -11 4 -17 -4 -6 -2 -8 4 -5 5
4 8 16 5 27 -6 22 -9 24 -18 11z"/>
<path d="M1650 1001 c0 -6 5 -13 10 -16 6 -3 10 1 10 9 0 9 -4 16 -10 16 -5 0
-10 -4 -10 -9z"/>
<path d="M1577 994 c-3 -3 -3 -13 0 -22 4 -9 2 -13 -4 -9 -6 4 -13 0 -17 -8
-10 -27 10 -24 27 5 15 25 10 50 -6 34z"/>
<path d="M1640 954 c-1 -51 -5 -70 -13 -75 -6 -4 -6 -13 0 -24 8 -13 12 -4 21
41 8 37 9 61 3 67 -6 6 -10 3 -11 -9z"/>
<path d="M1756 953 c-6 -14 -5 -15 5 -6 7 7 10 15 7 18 -3 3 -9 -2 -12 -12z"/>
<path d="M1543 923 c4 -6 0 -13 -8 -17 -9 -3 -12 -12 -8 -22 5 -13 3 -15 -7
-9 -9 5 -11 4 -6 -3 10 -17 14 -15 31 17 11 22 12 32 3 37 -6 4 -8 3 -5 -3z"/>
<path d="M1781 764 c0 -11 3 -14 6 -6 3 7 2 16 -1 19 -3 4 -6 -2 -5 -13z"/>
<path d="M1250 1801 c0 -5 5 -13 10 -16 6 -3 10 -2 10 4 0 5 -4 13 -10 16 -5
3 -10 2 -10 -4z"/>
<path d="M1270 1766 c0 -2 7 -9 15 -16 13 -11 14 -10 9 4 -5 14 -24 23 -24 12z"/>
<path d="M1325 1730 c3 -5 8 -10 11 -10 2 0 4 5 4 10 0 6 -5 10 -11 10 -5 0
-7 -4 -4 -10z"/>
<path d="M1810 1085 c0 -5 5 -17 10 -25 5 -8 10 -10 10 -5 0 6 -5 17 -10 25
-5 8 -10 11 -10 5z"/>
<path d="M1825 2230 c28 -12 37 -12 30 0 -3 6 -16 10 -28 9 -21 0 -21 -1 -2
-9z"/>
<path d="M545 970 c-3 -5 -1 -10 4 -10 6 0 11 5 11 10 0 6 -2 10 -4 10 -3 0
-8 -4 -11 -10z"/>
<path d="M1746 521 c-4 -7 -5 -15 -2 -18 9 -9 19 4 14 18 -4 11 -6 11 -12 0z"/>
<path d="M2127 2352 c-35 -38 -8 -92 45 -92 31 0 51 21 51 55 0 14 -6 32 -13
40 -17 21 -63 19 -83 -3z"/>
<path d="M2345 2166 c-16 -12 -18 -19 -9 -32 20 -33 44 -41 60 -20 12 17 12
23 1 40 -18 27 -29 29 -52 12z"/>
</g>
</svg>
